<?xml version="1.0" encoding="UTF-8"?><svg id="Layer_1" xmlns="http://www.w3.org/2000/svg" viewBox="0 0 48.3 48.7"><defs><style>.cls-1{fill:#e00816;stroke-width:0px;}</style></defs><path class="cls-1" d="m37.1,36.6q-.1.2,0,.3c.2.2.4.2.3.2.1-.2.3-.4.4-.4l.2.1c0-.3.1-.5.1-.6.1-.2.1-.4.1-.6l-.2-.3q-.1-.1-.2-.3c-.2,0-.2.2-.2.3-.1.1-.1.2-.1.4.1.1.1.3.1.4v.3c0,.1-.2.1-.3.1l-.2.1Zm-2.7,9.6h0ZM13.1,2.7c.4-.2.8-.4,1.3-.6h0c-.4.1-.8.3-1.3.6m6.6,1.5v-.2l-.1-.1c-.1-.2-.1-.4-.1-.6v-.2c0-.2.1-.3,0-.4,0-.2-.1-.6-.1-.7s0-.3-.1-.4c-.1-.2-.1-.3-.1-.5l-.2-.2-.1-.1c-1.6.3-3,.8-4.5,1.4l.1.1c.1.1.2.3.2.4v1.8c.1.1.2.4.4.4l.3-.2c.2-.1.3-.1.4-.1h.4c.1,0,.1.1.3.1.1-.3.2-.4.3-.4s.3-.1.4-.1c.3,0,.4-.2.7-.3.1,0,.4-.1.5-.2h.2c.1,0,.2-.1.3,0,.1,0,.2.1.3.1l.2.1.1.1c.1,0,.1.1.2.2m-6.5.6v.4c0,.1.1.1.3.1l.1-.2.3-.1-.1-.5-.3.1c-.1,0-.2,0-.3.2m1.9,2.9v-.1l.1-.1c.3.1.6,0,.8,0s.5,0,.7-.1.6,0,.9-.1l.1.2c.1-.1.2-.1.3-.2.2-.1.3-.1.6,0,.2,0,.4.2.5.1q.1-.1.3-.1l.2.1c.2-.1,0-.3-.1-.4v-.2c0-.2-.1-.3,0-.4l.1-.3v-.8c0-.2.1-.5.1-.6h-.1l-.1-.1c-.1,0-.1.4-.2.4-.2,0-.3.1-.4,0h-.3c-.2,0-.3,0-.5.1-.1,0-.3,0-.4.1-.1,0-.5.1-.7.1h-.4c-.1,0-.2-.1-.3-.1-.5,0-.2.1-.5.1-.1,0-.2-.1-.4-.1s-.3,0-.5.1c0,.1-.1.2-.1.3v.4c0,.1-.1.3-.1.4,0,.2,0,.1.1.4v.3c.1.1.1,0,.2.2v.2l.1.2h0Zm2,.8h0Zm29.6,7.3c.1.3.2.5.3.8,0-.3-.1-.5-.3-.8h0Zm-10.1-12.2c.4.3.9.6,1.3.9h0c-.4-.4-.9-.7-1.3-.9M0,21c.1-.5.2-1.1.3-1.6H.3C.2,19.9.1,20.5,0,21H0m23.4-10.7l-.1.2h0l.1.2.4-.1.3.1h0v-.1l-.3-.2-.4-.1Zm-12.3,8.2h0Zm-.1.2c-.2,0-.1,0-.1.1s.2.1.3.1.2-.1.3-.1v-.2c0-.1-.1,0-.2-.1h-.2l-.1.2Zm18.8,4.6l.3-.1c-.1-.1-.3-.4-.4-.4l-.4.3-.2-.1-.1.2v.3c0,.4.4-.1.4-.1l.4-.1Zm1.6,11.2l.3.1.1.3v.2c-.1.1-.2.3-.3.4-.1.1-.1.3-.2.4l-.2.2c-.1.1-.3,0-.4,0h-1.2l-.2.2h-.4c-.1,0-.3-.1-.4-.1l-.3-.1c0-.2-.3-.1-.4-.1-.2,0-.3,0-.5.1l-.3.2.2-.1.3.4c.1.1.1.2.2.3l.1.2v.2c0,.1-.2.3-.2.3l.1.2q.1.1.1.3c0,.1.1.2.1.3s.1.2.1.3c.1.1.1.2.2.4.1.3.3.5.5.7.3.3.5.6.8.9.1.1.1.2,0,.4,0,.1.1-.2.4.2l.2.2.1.1.2.1h.1c.1.1.1.2.2.3l.2.2.1.2c.1.1.3.2.4.3s.2.1.2.2c.1.1-.1.2-.2.4s-.2.3-.3.4c-.2.2-.6.4-.9.4-.1,0-.2,0-.4-.1q-.2-.1-.3-.2c-.1-.1-.5-.1-.7-.2l-.2-.3c-.1-.1-.2-.3-.3-.5-.1-.1,0-.2-.1-.5-.1-.1-.1-.3-.2-.4l-.3-.2-.1-.1c.3,0,.2-.3.2-.4,0-.2-.1-.3-.2-.5s-.1-.3-.1-.4c0-.2-.1-.3-.1-.5v-.4c0-.1-.2-.2-.3-.4-.1-.2-.6.6-.7.7-.3.5-.7.9-1.1,1.3-.1.1-.2.3-.3.4-.2.2-.2.1-.2.3,0,.1-.3.3-.4.5s-.1.4-.2.6l-.1.3c-.1.1-.1,0-.3.2-.1.1-.5.6-.6.8l-.2.2-.2.1-.2.1c-.1,0-.1-.2-.1,0l-.4.3c-.1.1-.3.3-.5.3-.1,0-.3-.1-.4-.1h-.3l-.1-.3.2-.2c0-.1.1-.2.2-.3l.2-.3c.1-.1.3-.3.4-.4.1-.2.2-.4.4-.6.2-.3.6-.8.7-.9.3-.3.6-.6.9-1,.3-.3.5-.6.8-.9.1-.1.2-.2.2-.3s0-.2.1-.3l.2-.2c.1-.1.1-.2.2-.3.2-.3.3-.5.5-.8s.4-.7.6-1.1c.1-.1,0-.2,0-.4v-.4l-.1-.1c-.2,0-.1.1-.3,0h-1.3l-.3-.2v.2l-.3.1c-.3,0-.5-.1-.8.1l-.2-.1c-.1-.1-.2-.4-.4-.5l-.1-.1q-.1,0-.1-.1v-.1l-.1-.5.1-.2c.2,0,.4.1.7.2.2,0,.4.1.7.1h.3l.1.1h.2c.2,0,.2-.1.3-.2.1-.1.3-.1.4-.1.3-.1.5.1.8.1h.9c.2,0,.2-.1.3-.1h.8c.2,0,.3-.1.4-.2v-2.3c0-.7,0-.2,0-.5,0-.1,0-.2.1-.5v-.9c0-.4.1-.5,0-.8v-.4c0-.1.1-1.6.1-1.7,0-.2.2-1.2,0-1.3-.1-.1-.1-.5-.1-.6,0-.2,0-.4-.1-.5,0-.3-.1-1.2,0-1.5,0-.3.1-.4,0-.7,0-.2,0-.5-.1-.7v-1.1c-.1-.1-.1-.2-.1-.3v-.2c0-.2.1-.3.1-.5s0-.2-.1-.4v-.5c-.1,0-.1-.1-.2-.1s-.2-.2-.3-.3l-.2-.1s-.2-.2-.6-.5c0-.1-.2-.3-.1-.5h.1l.1-.1.1-.1.1-.1h.4l.2.1.1.1.2.1c.1,0,.3.1.4.1h.7c.2,0,.5.3.7.4l.2.2c0,.1,0,0,.1.2s.2.2.3.3.1.2.1.3v.3c0,.2-.3.3-.3.4,0,.2.2.3.2.5,0,.1,0,.3-.1.4-.1.2,0,.4-.1.5,0,.2-.1.4,0,.6,0,.2.1.3,0,.6v.6c.1.3,0,.7,0,1v1.7q0,.1-.1.2c-.1.2-.1.4-.1.6,0,.4-.1.7,0,1.1.1.5,0,1,0,1.5,0,.2,0,.5.1.8.1.5-.2,1.1.2,1.6v.6q0,.2-.1.4c-.1.1-.1.2-.2.3l.2.2c0,.2.1.3,0,.4-.1.1-.2.2-.3.3l-.1.2c.1,0,.2.1.3.1.4,0,.6.1.6.1.1.1.1.2.3.2h.3m-4.3-15.1c.3.2.1.2.2.5l.1.2c.1.2,0,1.3,0,1.4,0,.2.2.5,0,.7,0,0-.1,1,0,1.4v.1c0,.3,0,.5.2.8.2.2.1.6.1.9l-.2.1-.1.4c0,.4-.1.7-.1,1.1v1.2c-.1.4,0,.7,0,1.1v.4c-.1.5-.1,1,0,1.5,0,.2.1.4,0,.6-.1.1-.2.1-.2.3-.1.1,0,.2-.1.3l-.2.2c-.1,0-.2.3-.3.4-.1.2-.3.3-.5.4-.2,0-.2-.1-.3-.1-.3-.1-.1-.5-.1-.7v-.8c0-.3-.1-.3-.1-.6,0-.4,0-.8.1-1.2,0-.2.1-.4.2-.7.1-.3,0-.8,0-1.1v-2h0l.2-.3v-.1l.2-.2v-.1c0-.1-.3-.2-.4-.2s-.3-.1-.4,0l.1.1.1.3-.1.1c-.1,0-.2,0-.5.1-.2.1-.3,0-.4.1l-.2.2c-.2,0-.3-.1-.5-.2-.2,0-.4,0-.5.1h-.3c-.2,0-.4.2-.6.1-.4-.1-.8-.4-.9-.7q-.1-.1-.1-.2c-.1-.1,0-.3,0-.5h.5c.2,0,.2-.2.4-.2.3,0,.6,0,.9.1.3,0,.5-.1.7-.1.1,0,.2,0,.4-.1h.6c.1,0,.6.2.4-.1-.1-.1.2-.3.2-.4l-.1-.1v-.1c0-.4-.1-.8,0-1.2h.2c-.2-.1,0-.3-.2-.5-.1-.1-.2-.1-.2-.3v-.4c0-.1-.1-.2-.1-.4,0-.3,0-.5-.2-.7l-.2-.3c-.1-.1-.2-.3-.3-.5-.2-.2-.2-.3-.4-.4,0-.1.1-.2.1-.2l.1-.2.2-.2c.1.1.4.1.5,0,.2,0,.3.2.5.4.2.1.4.1.5.3v-.1h.3c.3,0,.6.1.8.3m-1.7-2.4v.9c-.3.1-.8-.2-.9-.5.1-.3.5-.2.6-.5h0c.3.1.1.1.3.1m4.2,28.3l.1-.3s.3-.1.3-.2c0,0,.4,0,.5.2,0,0-.1.4.3.2l.2-.1.1.2s-.3.2-.2.3c0,0-.7-.1-.8-.4-.1.2-.3-.2-.5.1m1.1-33.8v-.5c.3,0,.4-.1.4-.1h.2c-.1.3,0,.3.3.4.3,0,.3.3.4.5,0,0-.4-.1-.5-.1-.3-.1-.6-.2-.8-.2m-18.6-2.8s-.1.1,0,.3v.3h-.2s-.2-.4-.4-.4v-.3l.2-.2.4.3Zm1.3,24.2c.3,0,.6-.1.8,0l.4.2c.1.1.2.1.4.2.2,0,.3.1.5.1s.1.1.2.2c.1.1.1.2,0,.3l-.1.2-.2.2-.3.2c-.5.1-1,0-1.5,0-.3,0-.6-.1-.9,0-.3,0-.7.1-1,.1h-.9c-.3,0-.7,0-1,.1-.2.1-.3.1-.6.1s-.5,0-.8.1h-.6c-.2,0-.4.1-.7.1h0l-.3.2c-.4,0-.8.1-1.2.1q-.3,0-.5-.2c-.2-.1-.3-.1-.5-.3-.2,0-.3-.1-.5-.2l-.2-.1-.1-.2c-.1-.1-.3-.3-.4-.4l.1-.4h.3c.1,0,.2.1.3.1.3,0,.7-.1,1,.1.2.1.2.2.4.2h.6c.2,0,.3-.1.6-.1.4-.1.9,0,1.3,0,.2,0,.3,0,.5-.1.3,0,.6-.1.9-.1.1,0,.3-.1.4-.1l.1-.3c-.1-.2-.2-.3-.3-.5s-.1-.3-.3-.5c-.6-.6-.4-.1-.6-.8-.1-.3-.4-.2-.5-.6.1-.1.5-.2.7-.4.1,0,.2.1.3.1s.2,0,.3.1.2.2.3.3.2.2.4.3.3.2.5.3l.3.1c.2.1.3.3.5.5l.1.2v.8c0,.1-.2.3,0,.3h1c.3-.2.6-.3.8-.5m19.5-5.8c-.1-.2.3-.4.4-.5l.1-.4.3-.1s.2.4.2.6,1,.3,1.1.5-.2.4-.4.5c-.3.1-.4-.1-.7-.1h-.8c0-.2-.2-.3-.2-.5m2.2,9.6h0v.2c-.1,0-.3.1-.3.1l-.1-.2-.1-.1q.1-.1.2-.1h.3c.1-.1,0,.1,0,.1m11.6-21h0c-1.7-4.6-4.8-8.5-8.8-11.3v1l.1.3c0,.2-.1.2-.2.4q.2.1.2.4v1c-.1,0-.2.1-.4.1s-.1,0-.3-.1c-.1,0-.4.2-.4.1l.2.4c.1,0,.6-.1.7-.1h.2v.2c.1.3.6.3.8.2.1-.1.2-.2.3-.2h.7l.2.1c.1.1.3.1.4.1h.2c.2-.1.1-.2.4-.1l.3.2c.2.1.4.3.5.4.2.2.1.3.1.5-.1.1-.2.2-.3.3-.2.1-.4.3-.6.4-.2.1-.3,0-.5.1-.2,0-.2.1-.5,0s-.7-.1-1-.1h-.5c-.1,0-.2-.1-.3-.2h-.1s-.1,0-.2.1v.9l-.2.4c.1.1.1.2.1.3,0,.2-.1.4.1.4v1c0,.3,0,.5-.1.7s0,.3-.1.6c0,.2-.3.3-.4.5-.1.1-.1.3-.2.5.1-.1.3-.1.4-.1.2,0,.3.1.4.1.2.1.5,0,.7.1s.4.3.6.4c.2.1.3.2.6.5.1.1.5.2.5.4v.2c0,.1,0,.3-.1.4-.1.2-.3.1-.5.2-.3,0-.5.3-.9.3-.6,0-1.1-.3-1.7-.3-.5,0-.5-.1-1,0-.3.1-.5,0-.9.1-.1,0-.1-.1-.2-.1h0c.1-.1.2-.2.3-.2h.2l-.1-.2-.3-.2c-.1,0-.2.1-.3.1l-.1.3h.1s-.2,0-.2,0c-.1,0-.2.1-.3.1-.2,0-.6,0-.8-.1-.6,0-.9.1-1.5.1s-1.3.2-1.9.2c-.4,0-.7.1-1.1.3-.3-.1-.5-.1-.8-.2-.2,0-.3-.1-.5-.2-.1-.1-.3-.2-.3-.3-.1-.2-.1-.3,0-.5l.4-.1.3-.3v-.3l-.6.1q-.1-.1-.1-.2v-.2c0-.2-.1-.4-.1-.6s0-.6.1-.7v-.4c.1-.3.1-.6.2-.9,0-.3-.2-.7-.2-.9,0-.1-.1-.2-.1-.4,0-.3.6-.3.7-.2.2,0,.3,0,.4.1q.1.2.3.2t.2.1c.1.1.3.1.3.2l.1.2.2.3q.1.2.1.5v.6c0,.1,0,.4-.1.5l-.2.2v1.5l.2.1c.4.1.9,0,1.3.1.1,0,0,0,.3-.1l.1-.1h1l.1.1h.3c.4,0,.5-.2.9-.2.3,0,.6,0,.9-.1.3-.1.7,0,1,0,.4,0,0-.1.4-.1.1,0,.2,0,.3-.1l-.1-.1q-.1-.2-.1-.4c0-.2-.1-.4-.1-.6,0-.1,0-.3-.1-.5,0-.2-.1-.2-.1-.4l.1-.7c.1-.3.1-.5,0-.8v-1.3q0-.2.1-.4.1-.1.1-.3c0-.1-.1-.2-.1-.4v-2.7l-.1.1.1-.2c.1-.1.1-.2.2-.3q.1-.2.1-.4c0-.3,0-.6-.1-1,0-.2-.1-.5,0-.7l.2-.1-.3-.2c0-.2-.1-.5-.3-.8-.2-.2-.5-.3-.6-.6v-.1c-2.1-1.1-4.5-1.9-6.9-2.3v.2c0,.4.2.7.2,1.1,0,.2-.1.5-.1.8v1c-.4.1-.3-.4-.4-.7-.2-.4-.3-.4-.2-.9.1-.3.2-.4.2-.8V.3c-1.2-.2-2.4-.3-3.6-.3-1.3,0-2.5.1-3.7.3.2.1.4.1.5.2l.1.2c.1.1.1.2.3.3l.3.1c.1.1.1.7.1.8,0,.2.1.5.1.7,0,.1,0,.2-.1.3l-.1.2-.1.2v.4c0,.3-.1.7-.1,1s.1.7,0,1c0,.2-.1.2-.1.4v.4c0,.2.1.5,0,.8h.1s.1.4.1.6c0,.4-.3.6-.6.9-.2.1-.1.3-.4.2-.2,0-.3-.1-.5-.1-.3,0-.6,0-.8-.2-.3-.4-1-.2-1.4-.2-.2,0-.3-.1-.5-.1s-.1.1-.3.1h.1-.2.1c-.2,0-.4.1-.4.1h-.8c-.3,0-.3.2-.5.3-.1.1-.3.1-.4.1l-.2-.1h-.4c-.2,0-.3.1-.5,0s-.3-.2-.5-.3-.3-.1-.4-.2v-.4l.1-.2.1-.1c.1-.2,0-.3,0-.5v-1.4c0-.2.2-.4.2-.6,0-.1-.2-.2-.2-.3-.1-.1,0-.3,0-.4-.4-.1-.4-.2-.4-.3v-1.1c0-.1.1,0,.1-.1v-.1c-1.3.6-2.6,1.4-3.7,2.2l-.6.7.6.5-.2.5c-.3-.3-.9,1-.9,1l-.6-.1-.2-.5c0-.2,0-.3.1-.5C3.9,10,1.4,14.4.4,19.4c.5,0,1-.1,1.5,0s.9,0,1.4,0c.4,0,.8-.1,1.1-.1.2,0,2.1.2,2.3-.1,0-.1.2-.1.3-.1h1.1c.3,0,.5-.1.8-.1.4,0,.5,0,.9-.1l.2.1c.2-.2.3-.4.3-.7,0-.2.1-.5.2-.7v-2.1l-.4-.2c-.1,0-.3-.1-.5-.1-.7,0-1.2.3-1.9.2-.2,0-.4-.1-.6-.1h-.4l-.3.1c-.2,0-.2-.1-.4-.3-.2-.1-.3-.1-.5-.1l-.3.4c-.2.1-.4.1-.6.2-.2,0-.3-.1-.5-.1h-.5c-.1-.1-.2-.2-.3-.3-.1-.1-.3-.1-.4-.2-.1-.1-.5-.5-.4-.7,0-.1.4-.3.5-.3.2,0,.4.1.5.1.4,0,.9.1,1.2,0,.5-.1,1-.1,1.5-.2.3,0,.7-.1,1-.1.2,0,.4-.1.6-.1.4-.1.7-.1,1.1-.2.3-.1.7-.2,1-.2h.3c.1-.1.1-.2.2-.3.1,0,.5-.1.6,0,.2,0,.4.1.6.2.2.1.4.1.5.3s.3.4.4.6c.1.1.2.2.3.4.1.1,0,.4,0,.6q-.1.1-.2.3v1.2c-.1.5-.2,1.1-.4,1.6-.1.1-.1.3-.1.4,0,.2-.2.2-.3.3,0,.1.7,0,.8,0h1c.4-.1.7-.2,1.1-.2.2,0,.4-.1.6-.1.4,0,.6-.1.8-.1s.3.1.5.1c-.1-.1-.2-.2-.2-.3s-.1-.2-.1-.3c0-.2-.1-.4-.1-.7,0-.2.1-.4.2-.6.1-.3,0-.5,0-.8,0-.2.1-.4.2-.7,0-.2,0-.3.1-.5.1-.4.1-.7,0-1.1l-.2-.8c0-.1,0,0-.1-.1l-.1-.1q-.1-.1-.1-.2l-.2-.2.1-.3c-.1-.1-.2,0-.4,0s-.4.1-.7.1h-.8c-.7,0-1.3.1-2,.1-.5,0-1,.1-1.5.2-.2,0-.3.1-.5.1h-.4c-.3-.1-1.1-.1-1.5.1q-.2.1-.4.1c-.2,0-.5-.1-.7-.1h-.5c-.1,0-.1-.1-.2-.2-.1-.1-.2-.2-.4-.3-.1-.1-.2-.3-.3-.4-.1-.1-.2-.1-.3-.3l-.1-.4h0c.1-.1.3-.1.4-.2.2,0,.2.1.4.1s.3-.1.5,0h1.2c.3,0,.8,0,1-.1h2c.4,0,.7-.1,1.1-.1,1.1,0,2.1,0,3.1-.4.2-.1.4,0,.5,0h.3l.2-.1h.9c.2,0,.3-.1.5-.1s.3.2.5.1l.2-.1c.1,0,.2,0,.3-.1q.2-.1.4-.1h1.1c.3,0,.6-.1,1-.1.3,0,.4-.1.7-.2.2,0,.4-.2.7-.2.2,0,.6.1.8.1.3,0,.4.2.6.3s.1.4.4.4c.1,0,.2-.1.3-.1h.1c.2-.3.3-.6.5-.9.2-.2.4-.3.6-.4.2-.2.4-.5.6-.7.2-.3.3-.5.6-.8-.1.1,0,0,.1-.1.1-.2.2-.4.4-.6.1-.1.2-.2.2-.3s.1-.2.1-.3l.2-.3c.5-.7.7-1.1,1-1.9.1-.3.1-.4,0-.7,0-.2,0-.5.1-.6s.3-.2.3-.2l.6.5c.1.2.4.3.6.5,0,.1.1.3.1.4,0,.2-.1.2-.1.4s.1.3.2.4q.1.2.2.4c.1.4.4.7.6,1,.3.1.5.5.8.7l.2.2v.2c.1.1.2.2.3.3l.2.2q.1.1.2.2c.3.3.5.5.8.7.1.1.4.3.5.6.1.2.3.2.4.2.2.1.3.2.4.6-.2.3-.7.8-1,1-.2.1-.4.1-.6.1s-.2-.2-.4-.2-.3,0-.5-.1c-.1,0-.2,0-.2-.1l-.2-.3c-.1-.1-.2-.2-.3-.3-.2-.1-.2-.2-.2-.4v-.4c0-.1-.1-.3-.2-.4,0-.2-.1-.4-.2-.5s-.2-.1-.4-.2c-.2-.2-.3-.5-.4-.8-.1-.4-.2-.8-.4-1.1-.1-.2-.2-.3-.4-.4-.2-.1-.2,0-.4.2-.1.1-.2.4-.3.5-.1.2-.2.4-.4.6-.3.4-.4,1-.8,1.4l-.2.3-.2.2c-.2.4-.3.8-.5,1s-.3.3-.4.5-.2.5-.4.6h-.1l.2.2.2.3.1.1-.1.3c-.2.1-.5.1-.7.3-.1.1-.2.2-.4.2h-1.3c-.2,0-.4-.1-.6-.2-.4-.2-.9-.2-1.4-.2s-1-.1-1.5,0l.1.1c.1.1.3.2.4.3v.3h-.4c-.2,0-.2-.1-.4-.1h-.4c-.2-.1-.2-.3-.3-.3.2-.1.5,0,.6-.1v-.1h-.1c-.1,0-.2-.1-.3-.1-.3-.1-.6,0-.8,0s-1.1-.2-.9,0c.1.1.3.3.3.6-.1.3-.1.1-.1.5,0,.2,0,.3-.1.5l-.4-.1-.1.1-.2.1v.3l.2.2.2-.2.1-.1h.1v.3c0,.2,0,.4.1.6l.1.3c.1.3,0,.6,0,.8v.3c0,.1-.1.2-.1.3,0,.4.2.9,0,1.2-.1.2-.2.3-.3.5l-.2.2-.5.5c.2.1.4.2.7.3.3,0,.4,0,.6.3.1.1.3.2.3.4v.5c-.2.2-.2.4-.5.4-.2,0-.4,0-.7.1q-.3.1-.6.3c-.1.1-.3,0-.4,0-.2,0-.4-.1-.6-.2s-.4-.2-.7-.3c-.2-.1-.4-.2-.6-.3-.4-.2-.9-.1-1.4-.1-.5-.1-1-.2-1.6-.1h-.2c-.1,0-.2.1-.3.1,0,.1-.1.1-.3.1h-.4c-.1,0-.1-.1-.4-.2h-.6c0,.1.3.2.4.3v1.1c0,.2-.1.4,0,.6,0,.2.1.3,0,.5,0,.2,0,.5-.1.7s-.1.3-.3.4l-.1.1h.1c.3,0,.5,0,.8-.1.1,0,.3,0,.4-.1.1,0,.3-.2.6-.2.2,0,.4.1.6.1s.3,0,.5.1c.6.3.4,0,.7.3.3.4.6.7.5,1-.1.2-.3.6-.3.8s0,.2-.1.5c0,.2-.1.5,0,.7,0,.2.1.3,0,.5v.7c0,.3,0,.5-.1.7-.1.3-.1.5-.1.7,0,.1.1.5,0,.6l-.3.2-.3.2c-.2.1-.3.3-.5.4,0,.4-.2.4-.4.6-.2.1-.2.2-.4.1-.1-.4-.3-.8-.2-1.2q0-.2.1-.4c.1-.2.1-.7.2-.9v-.3h.1c.1,0,.2,0,.3.1l.2.2.1-.1-.2-.4-.1-.3c-.1-.1-.3-.1-.4-.1,0-.4.1-.5.2-1v-.3c0-.4-.1-.8-.1-1.2h-.2c-.2-.3-.5-.5-.8-.7-.1.3-.6.3-.9.3-.2.1-.4,0-.6,0h-1.1c-.2,0-.3.1-.4.2h-.4c-.8-.1-1.6.2-2.4.2h-1c-.1,0-.3,0-.4.1l-.4.1h-.4l-.3-.1c-.1-.1-.3-.1-.4-.2l-.3-.1h0l-.2-.3-.1-.1v-.6h.2l.2-.2c.2,0,.4.1.7,0,.4-.1.8,0,1.2,0h1.2c.3,0,.5.1.8,0,.1,0,.2-.2.3-.2h.5c.3,0,.5,0,.7-.1h1.1c-.1-.1,0-.2,0-.3s0-.2-.1-.3c0-.1-.2-.2-.1-.4.2-1,.2-.9.2-1.2v-1.2c-.1-.2-.2-.3-.3-.3h-1c-.3,0-.6.2-.9.1,0-.1-.4-.2-.5-.2-.2,0-.2.1-.4.2-.1.1-.2.1-.3.1h-.4c-.2,0-.4.1-.6.1-.7.1-1.4.1-2.1.1h-.2l-.1-.1c-.1,0-.2.2-.4.2-.2.1-.4.1-.6.1-.1,1-.2,2.1-.2,3.2,0,2.6.4,5,1.1,7.4l.6-.4,1.1.9s-.3.2-.2,1l.2.9h-.7s-.3-.5-.7-.9c1.5,3.9,4,7.3,7.1,9.9h.6l.3-.1c.2,0,.7,0,.8-.2v-.6c-.2-.7-.3-.7-.3-.9.1-.2.2-.4.2-.4-.1,0-.3,0-.4-.1h-.6c-.2,0-.3-.2-.5-.2h-.3c-.1,0-.1.1-.3,0l-.1-.1c-.1,0-.2-.1-.2-.2q-.1-.1-.2-.3c-.1-.1-.1-.2-.2-.3s-.1-.2-.1-.3c0,.1-.3-.8-.2-.6-.2-.3-.3-.3-.2-.6.1-.4.1-.7.3-1,.2-.3.4-.7.7-.9l.4-.1v-.2l.2-.1c.2-.1.3-.2.5-.3.4-.2.8-.2,1.2-.3s.6-.2,1-.2c.3,0,.3.2.5.3.2.1.4.1.6.1.3.1.5.2.8.3.1,0,.2.1.4.2.1.1.2.1.3.2.2.1.3.2.4.3.1.2.2.4.3.6v.9c0,.2.1.3,0,.5,0,.2-.1.2-.2.3-.2.2-.2.5-.3.7s-.3.6-.6.7c-.1.1-.3.1-.4.2-.1.1-.3.2-.4.2-.2.1-.4.2-.5.3l-.2.1-.1.1-.2.1v.2l.2.2c.2.4,0,.8.1.9.1.1,0,.6.1.6s-.1-.2.1-.2c.2-.1,1-.1,1.2-.2.6-.2,1.1-.3,1.7-.4.2,0,.3-.1.5-.1s.4.2.6.2h.4v-.1c-.2-.4-.4-.4-.4-.7-.1-.3,0-.5.1-.7.2-.1.4-.2.5-.3v-.8h.5c0,.2-.2.4-.2.7-.1.3,0,.6,0,.9s-.1.5-.1.8v.1c.2,0,.3,0,.4.1s.1.1.2.2c.1.1.2.3.4.4.2.2.1.1.3,0h.2c-.1-.3-.3-.3-.7-.4,0-.2-.1-.3-.1-.5s.1-.2.1-.3c.1-.4.1-.9.1-1.2-.1-.5-.1-.9.1-1.4.1-.2.1-.3,0-.5,0-.2-.1-.4,0-.6.1-.3,0-.7,0-1v-1.6c0-.4,0-.8.1-1.2,0-.2,0-.3-.1-.5-.1-.3,0-.3.2-.5-.3-.2-.2-.4-.3-.7-.1-.2-.1-.5-.1-.7,0-.3-.1-.5-.1-.8v-.2c0-.1-.4-.7-.8-.9-.1,0-.1-.1-.1-.2v-.1h0l-.2.2c-.2.1-.4.4-.5.6l-.2.3c-.1.1-.3.2-.5.3-.4.2-.6.5-1.1.6-.1,0-.3-.1-.4-.1s-.3.1-.4,0l-.1-.4s.1-.2.2-.3c0-.1.3-.3.4-.5.1-.1.2-.4.3-.5.2-.2.3-.4.4-.5.2-.3.4-.4.7-.7.1-.1.3-.2.4-.4s.1-.3.3-.5c.5-.6,1.1-1.3,1.2-1.5s.2-.2.3-.3l.2-.3c.1-.1.1-.2.2-.3.1-.2.2-.4.4-.5.1-.1.3-.3.4-.5l.1-.3v-.3c0-.1.1-.3.1-.5v-.4q0-.1-.1-.3c0-.1.1-.1,0-.2s-.2.1-.4.1h-.5c-.1,0-.5-.1-.5-.1h-.8c-.3,0-.5,0-.8.1l-.2-.1c-.1-.1-.2-.4-.3-.5l-.1-.1-.3.4v-.1l-.1-.5.1-.2c.1-.1.5.1.6.2.2,0,.5.1.7.1.1,0,.2-.1.3-.1h.1l.1.1c.1,0,.2-.1.3-.2.1-.1.3,0,.4-.1.3-.1.5-.1.8-.1.1,0,.3.1.4.1.2,0,.1-.1.3-.1.2-.1.4,0,.6,0h.8c.3-.1.5-.2.8-.3.2-.1.3-.2.5-.2s.4-.1.6-.1c.3,0,.4.1.6.2.1,0,.7.2.4.2.1,0,.1.2.3.2h.3l.3.1v.6c-.1.1-.2.3-.2.4,0,.2-.2.3-.3.4l-.2.2c-.1.1-.3,0-.4,0h-1.1s-.2.1-.2.1h-.4c-.1,0-.3-.1-.4-.1h-.3c0-.2-.3-.1-.4-.1-.2.1-.3,0-.5.1h-.1l.2.1c.2.1.2.3.3.4.1.1.3.3.3.4s-.2.5-.1.6l.1.2q.1.1.2.3.1.2.1.3c0,.1.1.2.1.3.1.1.2.2.2.4.1.3.3.5.5.7.3.3.4.6.6.9.1.1.2.4.1.5,0,.2.1-.1.3.1l.2.2.2.1.1.1.3.3c.1.1.2.2.2.3q.1.1.2.1c.1,0,.2.1.3.2.1.1.2.1.2.3,0,.1.1.1,0,.2l-.2.3c-.1.1-.3.2-.4.3-.2.2-.6.5-.8.5-.1,0-.2,0-.4-.1q-.2,0-.3-.1c-.1-.1-.2-.1-.4-.2-.3-.1-.4-.5-.6-.7-.1-.1-.2-.2-.2-.3s.1-.2.1-.4c-.1-.2-.1-.3-.2-.4l-.2-.4h-.1c-.1-.1-.2-.4-.3-.5,0-.2-.2-.3-.2-.5,0-.1-.1-.2-.1-.4-.1-.3-.2-.7-.1-.9,0-.2-.2-.1-.2-.2l-.1-.2c-.2-.2-.6.7-.7.9-.1.2-.4.3-.5.6-.1.3-.3.5-.5.7-.1.1-.2.3-.3.4q-.1.1-.2.3c-.1.2-.3.3-.4.5s-.1.3-.2.5v.1c.1-.1.2-.1.3-.1q.2,0,.4.1c.1.1.3.1.4.2.3.1.6.3,1,.3.2,0,.3,0,.5.1l.2.2c.3.2,0,.2.3.4.1.5,0,.7-.1.9,0,.1-.1.2-.1.3v1.2c0,.4,0,.7.1,1.1.1.4-.1.7-.1,1.1v.5c0,.2-.1.4,0,.6,0,.2.2.4.3.5.1,0,.3.1.5,0l.3-.1c.3-.1.4-.3.7-.3h.6c.2,0,.4.2.6.2s.3-.1.5,0,.6.2.8.3c.2.1.1.3.1.5s.2.5.1.6c-.1.3-.5.6-.8.6q-.1,0-.3-.1c-.2,0-.4,0-.6-.1-.2,0-.4-.1-.6-.1h-1c-.4,0-.6-.1-.9-.1v-.1s-.2-.1-.2-.1l-.3-.1.2-.4h-.5q-.1.1-.2.2c-.1,0-.1.1,0,.2v.2c-.1,0-.2.1-.4,0,0,.1.1.4.2.5l.1-.1q.1-.1.2-.1l-.1-.2c.3,0,.6-.1.9,0,0,.2.1.4.1.6s-.3.3-.3.5v.3c.1.3,0,.7,0,1.1,0,.2.1.7-.1.9.2.1.2,0,.2.2v.7c0,.4.1.8.1,1.2v.8c0,.2-.1.3-.1.5v.8c0,.2.1.5.1.7s-.1.4-.2.6c0,.1-.2.2-.2.3-.1.2,0,.3-.1.5-.4-.1-.9-.2-1.3-.3v-.1c0-.2,0-.1-.1-.3v-.4c0-.1-.1,0-.1-.1-.1-.2-.1-.4-.1-.6v-1.1q0-.1.1-.3c.1-.2,0-.4,0-.6,0-.1.1-.4-.1-.5-.1-.1-.3.3-.4.3s-.3-.1-.4-.1h-.3c-.5-.1-1-.2-1.5-.2-.2,0-.4.1-.6.1h-1.1c-.1,0-.1-.2-.2-.3-.1.1,0,.2-.1.3l-.5.1c-.3.1-.9,0-1.2,0h-.6c-.2.1-.4,0-.5.1h-.1c3.9,2.9,8.8,4.6,14,4.6,3.4,0,6.7-.7,9.7-2v-1.3c0-.3-.1-.3-.1-.6,0-.5,0-.8.1-1.2,0-.2.1-.5.1-.7.1-.3,0-.8-.1-1.1v-2.2s.4-.1.3-.2-.7,0-1,0v.2c-.2,0-.3,0-.4.1l-.2.2c-.2,0-.3-.1-.4-.1s-.4,0-.5.1h-.3c-.2,0-.3.1-.5.1s-.3-.1-.4-.2l-.5-.5c-.1-.1-.1-.2-.2-.3q0-.1-.1-.2c-.1-.1.1-.3.1-.5q.2,0,.4-.1c.2-.1.2-.2.4-.2.3,0,.6,0,.9.1.2,0,.5-.1.7-.1.1,0,.2-.1.3-.1h.6c.1,0,.6.2.4-.1-.1-.1.2-.3.2-.4l-.1-.1v-.1c0-.4-.1-.8,0-1.2h.2c-.1-.1,0-.3-.2-.5-.1-.1-.2-.1-.2-.3v-.8c0-.3-.2-.4-.4-.6l-.2-.3-.2-.2-.1-.2-.1-.2-.2-.1q0-.1.1-.2l.1-.2.2-.2c.1,0,.3.1.5,0,.2,0,.4.3.6.4.2.1.3.1.5.3l.1-.1h.2c.2,0,.5.1.7.2.3.1.1.2.2.4l.1.2c.1.2-.1.3-.1.5h-.3l-.1.2-.4-.2-.3.2c-.1.2-.2.5-.2.5l.2.2.3.3c.2.1.1-.2.1-.3s.2-.3.3-.4c.2-.2.1-.1.2.1,0,.1.1.1.1.3s-.2.4-.2.7h-.7l-.1.3c0,.1.2.3.1.4s-.1,0-.2-.1c-.1-.2,0-.2-.2-.2l-.1.6c0,.2.2.2.2.4s.1.3.3.5c.1,0,.3,0,.4-.2l.4-.1h.2c0,.3-.1.6.1.8.2.2.1.6.1.9l-.2.1v.4c0,.4-.2.7-.1,1.1v1.6c0,.3.1.5.1.8v.4c-.1.2,0,.2-.1.4v.7c.1.2,0,.2.1.4,0,.2.1.3,0,.6-.1.1-.1.2-.2.3,0,.1,0,.2-.1.3.6-.3,1.2-.6,1.8-1v-.6c0-.4.1-.6,0-.8v-2.3c0-.2.2-1.3,0-1.4-.1-.1-.1-.5-.1-.7s0-.4-.1-.6c0-.4-.1-1.3,0-1.6,0-.3.1-.5,0-.7,0-.2-.1-.6-.1-.7v-1.2l-.1-.3-.1-.2.1-.3v-.2c0-.2.1-.3.3-.2v-.2l-.1-.1-.2-.2c-.1-.1.1-.3,0-.3s-.3.1-.4,0c-.1,0-.2-.2-.3-.3l-.2-.1s-.2-.2-.6-.5c0-.2-.2-.4-.1-.5l.1-.1.1-.1.1-.1.1-.1h.2l.2.1.2.1.1.1.2.1c.1,0,.3,0,.4.1h.7c.2,0,.4.2.6.3,0-.2,0-.4-.1-.5v-.2l.1-.2.1-.4-.1-.2v-.1q-.1,0-.2-.2l.1-.2-.3.1s0-.1-.1-.3l.1-.3s.2.2.4.3v-.1c0-.5.3-.7.5-1.1.1-.2.2-.4.4-.5l.6-.3c.1-.1.2-.3.3-.4s.3-.1.5-.2c.4,0,.7,0,1.1-.1h1.1c.4,0,.9.2,1.8.5.1,0,.2.2.3.3.1.1.1.2.2.3,0,.1.2.2.3.4l.1-.1c-.1-.1-.1-.3-.2-.4v-1.4c0-.2.1-.3.1-.5s0-.4-.1-.5c0-.3-.1-.6-.1-1,0-.2-.1-.3-.1-.5-.1-.2,0-.3-.2-.3h-.4c-.1,0-.3.1-.4.2-.4.1-.8.3-1.2.3q-.2,0-.4-.1c-.2-.1-.3-.1-.5-.1s-.4.1-.6.1c-.2.1-.3.1-.5,0-.1-.1-.3-.1-.5-.2l-.1-.2c-.1-.1-.1-.4-.2-.4v-.3q.3,0,.5-.1c.2,0,.4-.1.6-.1s.3,0,.4-.1q.1-.1.3-.1c.1,0,.3,0,.4-.1.4-.1.7-.2,1-.2s.7.1,1,0c.3,0,.4.2.7.3l.2-.1c0-.2-.1-.1-.1-.2-.1-.1,0-.2,0-.3,0-.2.1-.4.1-.5s.1-.1,0-.3l-.1-.3c0-.2,0-.4-.1-.5v-.5c-.2,0-.2.1-.4.2-.1.1,0,.2-.3.2-.4.1-1.1.4-1.5.3h-.5c-.2,0-.3,0-.4-.1l-.1-.1h-.9c0,.2-.6-.2-.6.4q.1.1.2.3v.2l-.1.2c0,.1.1.2,0,.4-.1.4-.4.6-.4,1,0,.1-.1.4-.1.5s.1.1,0,.3c-.1.1-.1.2-.2.3q-.1.2-.3.3c-.2.1-.4.1-.7.2-.2.1-.4.3-.6.4-.1.1-.1,0-.2.1-.3.1-.7.2-1,.4-.3.2-.6.5-1,.4-.3-.1-.5,0-.8,0-.2,0-.4-.1-.6-.2-.1-.1-.3-.1-.5-.3-.1-.1-.2-.3-.3-.4l-.7-.7v-.6c-.1-.2-.2-.3-.3-.5-.1-.1-.2-.2-.3-.3l-.1-.3c-.1-.2-.2-.1-.1-.4s.2-.6.3-.8c.1-.2.1-.4.3-.6.1-.1.2-.3.3-.5,0-.1,0-.2.1-.4,0-.1.1-.1.2-.2.1-.2.4-.3.7-.2h0c.2-.1-.2-.1-.1-.2l.1-.1.1-.1c.3,0,.7-.1.9-.1.4,0,.6-.2.9-.3l.3-.1c.1,0,.2.1.3.2s.3,0,.5,0c.4,0,.7.1,1.1.3.1.1.3.2.4.2l.3.2c.2.1.3.2.5.3.2.1.3.3.5.4s.2.2.3.4c.2.1.1-.7.2-.7h.4c.2-.1.4,0,.6,0s.4-.1.6-.1l.3-.1c.1-.1.3-.1.4-.1.2-.1.3,0,.5-.1.2,0,.3,0,.5-.1l.3-.1c.2-.1.4,0,.6,0s.1-.1.7,0q.2,0,.5-.1c.2.1.2.3.4.2.1,0,.2-.2.3-.2h.4c0-.1-.1-.3-.1-.4-.1-.3-.3-.1-.8-.1-.1.1-.2.1-.3.2-.1-.1-.1,0-.1-.1v-.8l.1-.2.3-.1c0-.2-.4-.5-.6-.6-.1-.1-.3-.5-.4-.7q0-.1-.1-.2-.2-.1-.3-.1-.2-.2-.4-.4c-.1-.2,0-.3.1-.4.2-.2.2-.1.4-.2s.3-.1.5,0c.1.1.3.1.5.2s.3.1.5.2.4.1.6.3c.1.1.3,0,.4,0-.2,0-.2.1,0,.3M10.7,35.8c.1.1.2.2.2.3l-.4.2-.2.2-.2.1c-.2,0-.4.1-.6.1s-.3-.1-.4.1l-.1.1-.2-.1c-.1.1-.2.3-.3.3-.1.1-.2.3-.2.5s-.1.2-.1.4c0,.1,0,.2.1.3l.2.3c.1.2.1.4.2.5.4.3.7.5,1.3.6.2.1.4,0,.6,0h.4l.2-.1c.2-.1.4-.3.5-.4.1-.1.3-.2.4-.4.1-.1.1-.2.2-.4,0-.1,0-.2.1-.3s.2-.1.2-.2v-.2c-.2-.3-.1-.8-.3-1.1l-.3-.1c0-.1-.1-.1-.3-.1-.1,0-.2-.1-.3-.1l-.3-.1-.1-.1-.1-.2-.2-.1Zm28.6-6h0c.1.2.1.3.1.4s0,.1.1.2q.1.2-.1.3s0,.3.1.2q0-.1.1-.1c.3.2.6.6.7.5.1,0,.3.1.4.2,0,0,0,.1.1.2.1.1.2.2.4.2.1,0,.2.2.4.2,0,0,.5,0,.7-.2s.3-.3.6-.4c.2-.1.7-.1.8-.2l.2-.2c.2-.2.2-.4.3-.7,0-.2.1-.4.1-.6v-.6c0-.3-.5-.6-.5-.9,0-.2-.1-.3-.3-.4-.1,0-.2.4-.4.4h-.3c-.3-.1-.7-.3-1.1-.3-.1,0-.2-.1-.3-.1h-.1l-.3.4c-.2.1-.3.1-.5.1-.3,0-.3.2-.5.4-.1.2-.2.3-.3.5l-.1.4h-.8v.1s0,.2.2.2l.3-.2Zm-5.2-8.5h0v-.4c0-.1-.2-.2-.3-.2l-.2.2c-.1.1-.3.2-.2.3l.2.1s.2.1.3.1v.2l-.3.2-.1.1v.1l.1.1.2.2h0l.1.2c.1.1.1.2.2.3.1.1.3.1.4.2h0l.1.1.2.2.1.1c.1.1.1.2.3.2.3.1.5.1.8.1h.3l.2-.3c.1-.1.3,0,.5-.1.1,0,.3-.1.4-.2.2-.2.4-.5.5-.7.2-.3.2-.7.1-1.1-.1-.4-.1-.8-.4-.9l-.1-.1-.1-.1c-.1-.1-.4,0-.6,0-.4,0-1.1-.2-1.4-.1-.1.1-.2.2-.3.3-.2.1-.1.2-.3.3-.2.2-.2.3-.3.5-.1.1-.2.1-.4.1m14.2,3.1c0-2.6-.4-5.1-1.2-7.5h0c-.1.3,0,.3-.1.5s-.2.9-.2,1v2.5c0,.4.1.5.1.9s-.1.4-.1.6c-.1.5,0,1,0,1.6,0,.2.1.4.1.7,0,.2-.1.4-.1.7v1.9l-.1.2v.7c.1.2-.2.3-.2.5l-.2.3c-.1.1-.2,0-.4.1-.1.1-.1.3-.1.5.1.4.1.7,0,1.1v.3l.1.1v.3c-.1.2-.2.4-.3.6l-.3.3c-.2.2-.3.2-.5.2-.2.1-.3.2-.4.3-.2.1-.3.1-.4.3-.1.1-.3.2-.4.3q-.2.1-.4.1c-.4.1-.7.2-1.1.3-.3,0-.5-.1-.8-.1-.2,0-.3-.1-.5-.1s-.3-.1-.5-.2c-.2-.1-.4-.2-.6-.3-.5-.2-.8-.7-.9-.9l-.3-.3h0c0,.2.2.2.3.3s.1.2.1.3v.3c0,.2-.3.3-.3.5s.2.3.2.5-.1.3-.1.4c-.1.2,0,.4,0,.6s-.1.5,0,.7.1.4,0,.6c-.1.3,0,.4,0,.7.1.4,0,.8,0,1.1v1.9c0,.1-.1.1-.2.2-.1.2,0,.4,0,.6.1.4,0,.9,0,1.3v1.7c2.3-1.7,4.3-3.8,5.9-6.2-.1-.1-.1-.2-.2-.3l.4-.7-.9.5s.1-.5-.3-1.1l.4-1.1s.9,1.1,1.5,1c1.9-3.3,3-7.1,3-11.3"/></svg>