<?xml version="1.0" encoding="utf-8"?>
<!-- Generator: Adobe Illustrator 27.1.1, SVG Export Plug-In . SVG Version: 6.00 Build 0)  -->
<svg version="1.1" id="레이어_1" xmlns="http://www.w3.org/2000/svg" xmlns:xlink="http://www.w3.org/1999/xlink" x="0px"
	 y="0px" viewBox="0 0 250 52" style="enable-background:new 0 0 250 52;" xml:space="preserve">
<style type="text/css">
	.st0{fill:#E10011;}
	.st1{fill:#FFFFFF;}
</style>
<g>
	<path class="st0" d="M37.3,38.3c-0.1,0.2-0.1,0.2,0,0.3c0.2,0.2,0.4,0.2,0.3,0.2c0.1-0.2,0.3-0.4,0.4-0.4l0.2,0.1
		c0-0.3,0.1-0.5,0.1-0.6c0.1-0.2,0.1-0.4,0.1-0.6L38.2,37c-0.1-0.1-0.1-0.1-0.2-0.3c-0.2,0-0.2,0.2-0.2,0.3
		c-0.1,0.1-0.1,0.2-0.1,0.4c0.1,0.1,0.1,0.3,0.1,0.4l0,0.3c0,0.1-0.2,0.1-0.3,0.1L37.3,38.3z M34.6,47.9L34.6,47.9L34.6,47.9
		L34.6,47.9z M13.3,4.4c0.4-0.2,0.8-0.4,1.3-0.6l0,0C14.2,3.9,13.8,4.1,13.3,4.4 M19.9,5.9l0-0.2l-0.1-0.1c-0.1-0.2-0.1-0.4-0.1-0.6
		l0-0.2c0-0.2,0.1-0.3,0-0.4c0-0.2-0.1-0.6-0.1-0.7c0-0.1,0-0.3-0.1-0.4c-0.1-0.2-0.1-0.3-0.1-0.5l-0.2-0.2l-0.1-0.1
		c-1.6,0.3-3,0.8-4.5,1.4l0.1,0.1c0.1,0.1,0.2,0.3,0.2,0.4c0,0.1,0,0.3,0,0.5c0,0.3,0,0.6,0,0.9l0,0.4c0.1,0.1,0.2,0.4,0.4,0.4
		l0.3-0.2c0.2-0.1,0.3-0.1,0.4-0.1c0.1,0,0.3,0,0.4,0c0.1,0,0.1,0.1,0.3,0.1C16.8,6.1,16.9,6,17,6c0.1,0,0.3-0.1,0.4-0.1
		c0.3,0,0.4-0.2,0.7-0.3c0.1,0,0.4-0.1,0.5-0.2c0.1,0,0.1,0,0.2,0c0.1,0,0.2-0.1,0.3,0c0.1,0,0.2,0.1,0.3,0.1l0.2,0.1l0.1,0.1
		C19.8,5.7,19.8,5.8,19.9,5.9 M13.4,6.5l0,0.4c0,0.1,0.1,0.1,0.3,0.1l0.1-0.2l0.3-0.1L14,6.2l-0.3,0.1C13.6,6.3,13.5,6.3,13.4,6.5
		 M15.3,9.4l0-0.1l0.1-0.1c0.3,0.1,0.6,0,0.8,0c0.2,0,0.5,0,0.7-0.1c0.2-0.1,0.6,0,0.9-0.1l0.1,0.2C18,9.1,18.1,9.1,18.2,9
		c0.2-0.1,0.3-0.1,0.6,0c0.2,0,0.4,0.2,0.5,0.1C19.4,9,19.4,9,19.6,9l0.2,0.1c0.2-0.1,0-0.3-0.1-0.4l0-0.2c0-0.2-0.1-0.3,0-0.4
		l0.1-0.3l0-0.2l0-0.2c0-0.2,0-0.3,0-0.4c0-0.2,0.1-0.5,0.1-0.6l0,0l-0.1,0l-0.1-0.1c-0.1,0-0.1,0.4-0.2,0.4c-0.2,0-0.3,0.1-0.4,0
		l-0.1,0l-0.2,0c-0.2,0-0.3,0-0.5,0.1c-0.1,0-0.3,0-0.4,0.1c-0.1,0-0.5,0.1-0.7,0.1c-0.1,0-0.3,0-0.4,0c-0.1,0-0.2-0.1-0.3-0.1
		c-0.5,0-0.2,0.1-0.5,0.1c-0.1,0-0.2-0.1-0.4-0.1c-0.2,0-0.3,0-0.5,0.1c0,0.1-0.1,0.2-0.1,0.3c0,0.1,0,0.2,0,0.4
		c0,0.1-0.1,0.3-0.1,0.4c0,0.2,0,0.1,0.1,0.4L15,8.8c0.1,0.1,0.1,0,0.2,0.2l0,0.2L15.3,9.4L15.3,9.4z M17.3,10.2L17.3,10.2
		L17.3,10.2L17.3,10.2L17.3,10.2z M46.9,17.5c0.1,0.3,0.2,0.5,0.3,0.8C47.2,18,47.1,17.8,46.9,17.5L46.9,17.5z M36.8,5.3
		c0.4,0.3,0.9,0.6,1.3,0.9c0,0,0,0,0,0C37.7,5.8,37.2,5.5,36.8,5.3 M0.2,22.7c0.1-0.5,0.2-1.1,0.3-1.6c0,0,0,0,0,0
		C0.4,21.6,0.3,22.2,0.2,22.7C0.2,22.7,0.2,22.7,0.2,22.7 M23.6,12l-0.1,0.2h0l0.1,0.2l0.4-0.1l0.3,0.1l0,0v-0.1l-0.3-0.2L23.6,12z
		 M11.3,20.2L11.3,20.2L11.3,20.2L11.3,20.2z M11.2,20.4c-0.2,0-0.1,0-0.1,0.1c0,0.1,0.2,0.1,0.3,0.1c0.1,0,0.2-0.1,0.3-0.1l0-0.2
		c0-0.1-0.1,0-0.2-0.1l-0.2,0L11.2,20.4z M30,25l0.3-0.1c-0.1-0.1-0.3-0.4-0.4-0.4l-0.4,0.3l-0.2-0.1l-0.1,0.2l0,0.3
		c0,0.4,0.4-0.1,0.4-0.1L30,25z M31.6,36.2l0.3,0.1l0.1,0.3l0,0.1l0,0.1c-0.1,0.1-0.2,0.3-0.3,0.4c-0.1,0.1-0.1,0.3-0.2,0.4
		l-0.2,0.2c-0.1,0.1-0.3,0-0.4,0c-0.2,0-0.3,0-0.5,0c-0.2,0-0.3,0-0.5,0l-0.2,0L29.5,38c-0.1,0-0.3,0-0.4,0c-0.1,0-0.3-0.1-0.4-0.1
		l-0.3-0.1c0-0.2-0.3-0.1-0.4-0.1c-0.2,0-0.3,0-0.5,0.1L27.2,38l0.2-0.1l0.3,0.4c0.1,0.1,0.1,0.2,0.2,0.3l0.1,0.2V39
		c0,0.1-0.2,0.3-0.2,0.3l0.1,0.2c0.1,0.1,0.1,0.1,0.1,0.3c0,0.1,0.1,0.2,0.1,0.3c0,0.1,0.1,0.2,0.1,0.3c0.1,0.1,0.1,0.2,0.2,0.4
		c0.1,0.3,0.3,0.5,0.5,0.7c0.3,0.3,0.5,0.6,0.8,0.9c0.1,0.1,0.1,0.2,0,0.4c0,0.1,0.1-0.2,0.4,0.2l0.2,0.2l0.1,0.1l0.2,0.1l0.1,0
		c0.1,0.1,0.1,0.2,0.2,0.3l0.2,0.2l0.1,0.2c0.1,0.1,0.3,0.2,0.4,0.3c0.1,0.1,0.2,0.1,0.2,0.2c0.1,0.1-0.1,0.2-0.2,0.4
		c-0.1,0.2-0.2,0.3-0.3,0.4c-0.2,0.2-0.6,0.4-0.9,0.4c-0.1,0-0.2,0-0.4-0.1c-0.2-0.1-0.2-0.1-0.3-0.2c-0.1-0.1-0.5-0.1-0.7-0.2
		l-0.2-0.3c-0.1-0.1-0.2-0.3-0.3-0.5c-0.1-0.1,0-0.2-0.1-0.5c-0.1-0.1-0.1-0.3-0.2-0.4l-0.3-0.2l-0.1-0.1C28.1,43.3,28,43,28,42.9
		c0-0.2-0.1-0.3-0.2-0.5c-0.1-0.2-0.1-0.3-0.1-0.4c0-0.2-0.1-0.3-0.1-0.5c0-0.1,0-0.2,0-0.4c0-0.1-0.2-0.2-0.3-0.4
		c-0.1-0.2-0.6,0.6-0.7,0.7c-0.3,0.5-0.7,0.9-1.1,1.3c-0.1,0.1-0.2,0.3-0.3,0.4C25,43.3,25,43.2,25,43.4c0,0.1-0.3,0.3-0.4,0.5
		c-0.1,0.2-0.1,0.4-0.2,0.6l-0.1,0.3c-0.1,0.1-0.1,0-0.3,0.2c-0.1,0.1-0.5,0.6-0.6,0.8L23.2,46l-0.2,0.1l-0.2,0.1
		c-0.1,0-0.1-0.2-0.1,0l-0.4,0.3c-0.1,0.1-0.3,0.3-0.5,0.3c-0.1,0-0.3-0.1-0.4-0.1c-0.1,0-0.2,0-0.3,0L21,46.4l0.2-0.2
		c0-0.1,0.1-0.2,0.2-0.3l0.2-0.3c0.1-0.1,0.3-0.3,0.4-0.4c0.1-0.2,0.2-0.4,0.4-0.6c0.2-0.3,0.6-0.8,0.7-0.9c0.3-0.3,0.6-0.6,0.9-1
		c0.3-0.3,0.5-0.6,0.8-0.9c0.1-0.1,0.2-0.2,0.2-0.3c0-0.1,0-0.2,0.1-0.3l0.2-0.2c0.1-0.1,0.1-0.2,0.2-0.3c0.2-0.3,0.3-0.5,0.5-0.8
		c0.2-0.3,0.4-0.7,0.6-1.1c0.1-0.1,0-0.2,0-0.4l0-0.2l0-0.2l-0.1-0.1c-0.2,0-0.1,0.1-0.3,0c-0.2,0-0.3,0-0.5,0c-0.2,0-0.3,0-0.5,0
		l-0.3,0l-0.3-0.2l0,0.2l-0.3,0.1c-0.3,0-0.5-0.1-0.8,0.1l-0.2-0.1c-0.1-0.1-0.2-0.4-0.4-0.5l-0.1-0.1c-0.1,0-0.1,0-0.1-0.1l0-0.1
		l-0.1-0.5l0.1-0.2c0.2,0,0.4,0.1,0.7,0.2c0.2,0,0.4,0.1,0.7,0.1c0.1,0,0.2,0,0.3,0l0.1,0.1l0.2,0c0.2,0,0.2-0.1,0.3-0.2
		c0.1-0.1,0.3-0.1,0.4-0.1c0.3-0.1,0.5,0.1,0.8,0.1h0.4c0.2,0,0.4,0,0.5,0c0.2,0,0.2-0.1,0.3-0.1c0.3,0,0.5,0,0.8,0
		c0.2,0,0.3-0.1,0.4-0.2c0-0.1,0-0.2,0-0.4c0-0.3,0-0.6,0-0.8c0-0.8,0-1,0-1.1c0-0.7,0-0.2,0-0.5c0-0.1,0-0.2,0.1-0.5
		c0-0.3,0-0.6,0-0.9c0-0.4,0.1-0.5,0-0.8l0-0.4c0-0.1,0.1-1.6,0.1-1.7c0-0.2,0.2-1.2,0-1.3c-0.1-0.1-0.1-0.5-0.1-0.6
		c0-0.2,0-0.4-0.1-0.5c0-0.3-0.1-1.2,0-1.5c0-0.3,0.1-0.4,0-0.7c0-0.2,0-0.5-0.1-0.7c0-0.1,0-0.3,0-0.4l0-0.3l0-0.1v-0.2l0-0.1
		c-0.1-0.1-0.1-0.2-0.1-0.3l0-0.2c0-0.2,0.1-0.3,0.1-0.5c0-0.2,0-0.2-0.1-0.4L28.4,21c-0.1,0-0.1-0.1-0.2-0.1
		c-0.1,0-0.2-0.2-0.3-0.3l-0.2-0.1c0,0-0.2-0.2-0.6-0.5c0-0.1-0.2-0.3-0.1-0.5l0.1,0l0.1-0.1l0.1-0.1l0.1-0.1l0.2,0l0.2,0l0.2,0.1
		l0.1,0.1l0.2,0.1c0.1,0,0.3,0.1,0.4,0.1c0.1,0,0.3,0,0.4,0c0.1,0,0.2,0,0.3,0c0.2,0,0.5,0.3,0.7,0.4l0.2,0.2c0,0.1,0,0,0.1,0.2
		c0.1,0.2,0.2,0.2,0.3,0.3c0.1,0.1,0.1,0.2,0.1,0.3l0,0.3c0,0.2-0.3,0.3-0.3,0.4c0,0.2,0.2,0.3,0.2,0.5c0,0.1,0,0.3-0.1,0.4
		c-0.1,0.2,0,0.4-0.1,0.5c0,0.2-0.1,0.4,0,0.6c0,0.2,0.1,0.3,0,0.6c0,0.2,0,0.4,0,0.6c0.1,0.3,0,0.7,0,1c0,0.4,0,0.8,0,1.2
		c0,0.2,0,0.4,0,0.5c0,0.1,0,0.1-0.1,0.2c-0.1,0.2-0.1,0.4-0.1,0.6c0,0.4-0.1,0.7,0,1.1c0.1,0.5,0,1,0,1.5c0,0.2,0,0.5,0.1,0.8
		c0.1,0.5-0.2,1.1,0.2,1.6c0,0.2,0,0.4,0,0.6c0,0.2,0,0.2-0.1,0.4c-0.1,0.1-0.1,0.2-0.2,0.3l0.2,0.2c0,0.2,0.1,0.3,0,0.4
		c-0.1,0.1-0.2,0.2-0.3,0.3l-0.1,0.2c0.1,0,0.2,0.1,0.3,0.1C30.8,35.9,31,36,31,36c0.1,0.1,0.1,0.2,0.3,0.2
		C31.5,36.2,31.4,36.2,31.6,36.2 M27.3,21.1c0.3,0.2,0.1,0.2,0.2,0.5l0.1,0.2c0.1,0.2,0,1.3,0,1.4c0,0.2,0.2,0.5,0,0.7
		c0,0-0.1,1,0,1.4l0,0.1c0,0.3,0,0.5,0.2,0.8c0.2,0.2,0.1,0.6,0.1,0.9l-0.2,0.1l-0.1,0.4c0,0.4-0.1,0.7-0.1,1.1c0,0.2,0,0.4,0,0.5
		l0,0.3l0,0.4c-0.1,0.4,0,0.7,0,1.1c0,0.1,0,0.3,0,0.4c-0.1,0.5-0.1,1,0,1.5c0,0.2,0.1,0.4,0,0.6c-0.1,0.1-0.2,0.1-0.2,0.3
		c-0.1,0.1,0,0.2-0.1,0.3c0,0,0,0-0.2,0.2c-0.1,0-0.2,0.3-0.3,0.4c-0.1,0.2-0.3,0.3-0.5,0.4c-0.2,0-0.2-0.1-0.3-0.1
		c-0.3-0.1-0.1-0.5-0.1-0.7c0-0.3,0-0.6,0-0.8c0-0.3-0.1-0.3-0.1-0.6c0-0.4,0-0.8,0.1-1.2c0-0.2,0.1-0.4,0.2-0.7
		c0.1-0.3,0-0.8,0-1.1c0-0.3,0-0.7,0-1l0-0.3c0-0.2,0-0.6,0-0.7H26l0.2-0.3v-0.1c0.1-0.1,0.2-0.2,0.2-0.2l0-0.1
		c0-0.1-0.3-0.2-0.4-0.2c-0.1,0-0.3-0.1-0.4,0l0.1,0.1l0.1,0.3l-0.1,0.1c-0.1,0-0.2,0-0.5,0.1c-0.2,0.1-0.3,0-0.4,0.1l-0.2,0.2
		c-0.2,0-0.3-0.1-0.5-0.2c-0.2,0-0.4,0-0.5,0.1c-0.1,0-0.2,0-0.3,0c-0.2,0-0.4,0.2-0.6,0.1c-0.4-0.1-0.8-0.4-0.9-0.7
		c-0.1-0.1-0.1-0.1-0.1-0.2c-0.1-0.1,0-0.3,0-0.5c0.2,0,0.3,0,0.5,0c0.2,0,0.2-0.2,0.4-0.2c0.3,0,0.6,0,0.9,0.1
		c0.3,0,0.5-0.1,0.7-0.1c0.1,0,0.2,0,0.4-0.1c0.2,0,0.4,0,0.6,0c0.1,0,0.6,0.2,0.4-0.1c-0.1-0.1,0.2-0.3,0.2-0.4l-0.1-0.1l0-0.1
		c0-0.4-0.1-0.8,0-1.2l0.2,0c-0.2-0.1,0-0.3-0.2-0.5c-0.1-0.1-0.2-0.1-0.2-0.3c0-0.1,0-0.3,0-0.4c0-0.1-0.1-0.2-0.1-0.4
		c0-0.3,0-0.5-0.2-0.7L25,21.7c-0.1-0.1-0.2-0.3-0.3-0.5c-0.2-0.2-0.2-0.3-0.4-0.4c0-0.1,0.1-0.2,0.1-0.2l0.1-0.2
		c0.1-0.1,0.1-0.1,0.2-0.2c0.1,0.1,0.4,0.1,0.5,0c0.2,0,0.3,0.2,0.5,0.4c0.2,0.1,0.4,0.1,0.5,0.3l0-0.1l0.3,0
		C26.8,20.8,27.1,20.9,27.3,21.1 M25.6,18.7c0,0.3,0,0.6,0,0.9c-0.3,0.1-0.8-0.2-0.9-0.5c0.1-0.3,0.5-0.2,0.6-0.5v0h0
		C25.6,18.7,25.4,18.7,25.6,18.7 M29.8,47l0.1-0.3c0,0,0.3-0.1,0.3-0.2c0,0,0.4,0,0.5,0.2c0,0-0.1,0.4,0.3,0.2l0.2-0.1l0.1,0.2
		c0,0-0.3,0.2-0.2,0.3c0,0-0.7-0.1-0.8-0.4C30.2,47.1,30,46.7,29.8,47 M30.9,13.2c0-0.2,0-0.4,0-0.5c0.3,0,0.4-0.1,0.4-0.1l0.2,0
		c-0.1,0.3,0,0.3,0.3,0.4c0.3,0,0.3,0.3,0.4,0.5c0,0-0.4-0.1-0.5-0.1C31.4,13.3,31.1,13.2,30.9,13.2 M12.3,10.4c0,0-0.1,0.1,0,0.3
		l0,0.3h-0.2c0,0-0.2-0.4-0.4-0.4l0-0.3l0.2-0.2L12.3,10.4z M13.6,34.6c0.3,0,0.6-0.1,0.8,0l0.4,0.2c0.1,0.1,0.2,0.1,0.4,0.2
		c0.2,0,0.3,0.1,0.5,0.1c0.2,0,0.1,0.1,0.2,0.2c0.1,0.1,0.1,0.2,0,0.3l-0.1,0.2L15.6,36l-0.3,0.2c-0.5,0.1-1,0-1.5,0
		c-0.3,0-0.6-0.1-0.9,0c-0.3,0-0.7,0.1-1,0.1c-0.3,0-0.6,0-0.9,0c-0.3,0-0.7,0-1,0.1c-0.2,0.1-0.3,0.1-0.6,0.1c-0.3,0-0.5,0-0.8,0.1
		c-0.2,0-0.4,0-0.6,0c-0.2,0-0.4,0.1-0.7,0.1v0L7,36.9c-0.4,0-0.8,0.1-1.2,0.1c-0.3,0-0.3,0-0.5-0.2c-0.2-0.1-0.3-0.1-0.5-0.3
		c-0.2,0-0.3-0.1-0.5-0.2l-0.2-0.1l-0.1-0.2c-0.1-0.1-0.3-0.3-0.4-0.4l0.1-0.4c0.1,0,0.2,0,0.3,0c0.1,0,0.2,0.1,0.3,0.1
		c0.3,0,0.7-0.1,1,0.1c0.2,0.1,0.2,0.2,0.4,0.2c0.2,0,0.4,0,0.6,0c0.2,0,0.3-0.1,0.6-0.1c0.4-0.1,0.9,0,1.3,0c0.2,0,0.3,0,0.5-0.1
		c0.3,0,0.6-0.1,0.9-0.1c0.1,0,0.3-0.1,0.4-0.1l0.1-0.3c-0.1-0.2-0.2-0.3-0.3-0.5c-0.1-0.2-0.1-0.3-0.3-0.5
		c-0.6-0.6-0.4-0.1-0.6-0.8c-0.1-0.3-0.4-0.2-0.5-0.6c0.1-0.1,0.5-0.2,0.7-0.4c0.1,0,0.2,0.1,0.3,0.1c0.1,0,0.2,0,0.3,0.1
		c0.1,0.1,0.2,0.2,0.3,0.3c0.1,0.1,0.2,0.2,0.4,0.3c0.2,0.1,0.3,0.2,0.5,0.3l0.3,0.1c0.2,0.1,0.3,0.3,0.5,0.5l0.1,0.2l0,0.3
		c0,0.2,0,0.3,0,0.5c0,0.1-0.2,0.3,0,0.3c0.2,0,0.4,0,0.6,0c0.1,0,0.3,0,0.4,0C13.1,34.9,13.4,34.8,13.6,34.6 M33.1,28.8
		c-0.1-0.2,0.3-0.4,0.4-0.5l0.1-0.4l0.3-0.1c0,0,0.2,0.4,0.2,0.6c0,0.2,1,0.3,1.1,0.5c0.1,0.2-0.2,0.4-0.4,0.5
		c-0.3,0.1-0.4-0.1-0.7-0.1c-0.2,0-0.5,0-0.8,0C33.3,29.1,33.1,29,33.1,28.8 M35.3,38.4L35.3,38.4l0,0.2c-0.1,0-0.3,0.1-0.3,0.1
		l-0.1-0.2l-0.1-0.1c0.1-0.1,0.1-0.1,0.2-0.1l0.1,0l0.2,0C35.4,38.2,35.3,38.4,35.3,38.4 M46.9,17.4L46.9,17.4
		c-1.7-4.6-4.8-8.5-8.8-11.3c0,0.3,0,0.7,0,1l0.1,0.3c0,0.2-0.1,0.2-0.2,0.4c0.2,0.1,0.2,0.1,0.2,0.4c0,0.2,0,0.3,0,0.5
		c0,0.2,0,0.3,0,0.5c-0.1,0-0.2,0.1-0.4,0.1c-0.2,0-0.1,0-0.3-0.1c-0.1,0-0.4,0.2-0.4,0.1l0.2,0.4c0.1,0,0.6-0.1,0.7-0.1l0.2,0
		l0,0.2c0.1,0.3,0.6,0.3,0.8,0.2c0.1-0.1,0.2-0.2,0.3-0.2l0.3,0h0.2l0.1,0l0.1,0l0.2,0.1c0.1,0.1,0.3,0.1,0.4,0.1l0.2,0
		c0.2-0.1,0.1-0.2,0.4-0.1l0.3,0.2c0.2,0.1,0.4,0.3,0.5,0.4c0.2,0.2,0.1,0.3,0.1,0.5c-0.1,0.1-0.2,0.2-0.3,0.3
		c-0.2,0.1-0.4,0.3-0.6,0.4c-0.2,0.1-0.3,0-0.5,0.1c-0.2,0-0.2,0.1-0.5,0c-0.3-0.1-0.7-0.1-1-0.1c-0.2,0-0.4,0-0.5,0
		c-0.1,0-0.2-0.1-0.3-0.2l-0.1,0c0,0-0.1,0-0.2,0.1l0,0.1l0,0.2c0,0.2,0,0.4,0,0.6l-0.2,0.4c0.1,0.1,0.1,0.2,0.1,0.3
		c0,0.2-0.1,0.4,0.1,0.4c0,0.2,0,0.3,0,0.4c0,0.2,0,0.4,0,0.6c0,0.3,0,0.5-0.1,0.7c-0.1,0.2,0,0.3-0.1,0.6c0,0.2-0.3,0.3-0.4,0.5
		c-0.1,0.1-0.1,0.3-0.2,0.5c0.1-0.1,0.3-0.1,0.4-0.1c0.2,0,0.3,0.1,0.4,0.1c0.2,0.1,0.5,0,0.7,0.1c0.2,0.1,0.4,0.3,0.6,0.4
		c0.2,0.1,0.3,0.2,0.6,0.5c0.1,0.1,0.5,0.2,0.5,0.4c0,0.1,0,0.1,0,0.2c0,0.1,0,0.3-0.1,0.4c-0.1,0.2-0.3,0.1-0.5,0.2
		c-0.3,0-0.5,0.3-0.9,0.3c-0.6,0-1.1-0.3-1.7-0.3c-0.5,0-0.5-0.1-1,0c-0.3,0.1-0.5,0-0.9,0.1c-0.1,0-0.1-0.1-0.2-0.1l0,0
		c0.1-0.1,0.2-0.2,0.3-0.2l0.2,0l-0.1-0.2l-0.3-0.2c-0.1,0-0.2,0.1-0.3,0.1l-0.1,0.3L35,18.9l-0.2,0c-0.1,0-0.2,0.1-0.3,0.1
		c-0.2,0-0.6,0-0.8-0.1c-0.6,0-0.9,0.1-1.5,0.1c-0.6,0-1.3,0.2-1.9,0.2c-0.4,0-0.7,0.1-1.1,0.3c-0.3-0.1-0.5-0.1-0.8-0.2
		c-0.2,0-0.3-0.1-0.5-0.2c-0.1-0.1-0.3-0.2-0.3-0.3c-0.1-0.2-0.1-0.3,0-0.5l0.4-0.1l0.3-0.3v-0.3l-0.6,0.1c-0.1-0.1-0.1-0.1-0.1-0.2
		l0-0.2c0-0.2-0.1-0.4-0.1-0.6c0-0.2,0-0.6,0.1-0.7c0-0.1,0-0.3,0-0.4c0.1-0.3,0.1-0.6,0.2-0.9c0-0.3-0.2-0.7-0.2-0.9
		c0-0.1-0.1-0.2-0.1-0.4c0-0.3,0.6-0.3,0.7-0.2c0.2,0,0.3,0,0.4,0.1c0.1,0.2,0.1,0.2,0.3,0.2c0.1,0,0.1,0,0.2,0.1
		c0.1,0.1,0.3,0.1,0.3,0.2l0.1,0.2l0.2,0.3c0.1,0.2,0.1,0.2,0.1,0.5c0,0.2,0,0.4,0,0.6c0,0.1,0,0.4-0.1,0.5l-0.2,0.2l0,0.3
		c0,0.3,0,0.8,0,1.2l0.2,0.1c0.4,0.1,0.9,0,1.3,0.1c0.1,0,0,0,0.3-0.1l0.1-0.1l0.3,0c0.1,0,0.3,0,0.4,0h0.3l0.1,0.1
		c0.1,0,0.2,0,0.3,0c0.4,0,0.5-0.2,0.9-0.2c0.3,0,0.6,0,0.9-0.1c0.3-0.1,0.7,0,1,0c0.4,0,0-0.1,0.4-0.1c0.1,0,0.2,0,0.3-0.1
		l-0.1-0.1c-0.1-0.2-0.1-0.2-0.1-0.4c0-0.2-0.1-0.4-0.1-0.6c0-0.1,0-0.3-0.1-0.5c0-0.2-0.1-0.2-0.1-0.4l0.1-0.7
		c0.1-0.3,0.1-0.5,0-0.8c0-0.3,0-0.3,0-0.6c0-0.2,0-0.5,0-0.7c0-0.2,0-0.2,0.1-0.4c0.1-0.1,0.1-0.1,0.1-0.3c0-0.1-0.1-0.2-0.1-0.4
		c0-0.7,0-1.5,0-2.2c0-0.2,0-0.4,0-0.5l-0.1,0.1L36,8.5c0.1-0.1,0.1-0.2,0.2-0.3C36.3,8,36.3,8,36.3,7.8c0-0.3,0-0.6-0.1-1
		c0-0.2-0.1-0.5,0-0.7l0.2-0.1l-0.3-0.2C36.1,5.6,36,5.3,35.8,5c-0.2-0.2-0.5-0.3-0.6-0.6l0-0.1c-2.1-1.1-4.5-1.9-6.9-2.3l0,0.2
		c0,0.4,0.2,0.7,0.2,1.1c0,0.2-0.1,0.5-0.1,0.8c0,0.3,0,0.6,0,1C28,5.2,28.1,4.7,28,4.4C27.8,4,27.7,4,27.8,3.5
		c0.1-0.3,0.2-0.4,0.2-0.8l0-0.2c0-0.2,0-0.4,0-0.5c-1.2-0.2-2.4-0.3-3.6-0.3c-1.3,0-2.5,0.1-3.7,0.3c0.2,0.1,0.4,0.1,0.5,0.2
		l0.1,0.2c0.1,0.1,0.1,0.2,0.3,0.3l0.3,0.1C22,2.9,22,3.5,22,3.6c0,0.2,0.1,0.5,0.1,0.7c0,0.1,0,0.2-0.1,0.3l-0.1,0.2L21.8,5
		c0,0.1,0,0.3,0,0.4c0,0.3-0.1,0.7-0.1,1c0,0.3,0.1,0.7,0,1c0,0.2-0.1,0.2-0.1,0.4c0,0.2,0,0.3,0,0.4c0,0.2,0.1,0.5,0,0.8l0.1,0
		c0,0,0.1,0.4,0.1,0.6c0,0.4-0.3,0.6-0.6,0.9c-0.2,0.1-0.1,0.3-0.4,0.2c-0.2,0-0.3-0.1-0.5-0.1c-0.3,0-0.6,0-0.8-0.2
		c-0.3-0.4-1-0.2-1.4-0.2c-0.2,0-0.3-0.1-0.5-0.1c-0.2,0-0.1,0.1-0.3,0.1l0.1,0l-0.2,0l0.1,0c-0.2,0-0.4,0.1-0.4,0.1
		c-0.1,0-0.2,0-0.4,0c-0.1,0-0.1,0-0.2,0l-0.2,0c-0.3,0-0.3,0.2-0.5,0.3c-0.1,0.1-0.3,0.1-0.4,0.1l-0.2-0.1c-0.1,0-0.3,0-0.4,0
		c-0.2,0-0.3,0.1-0.5,0c-0.2-0.1-0.3-0.2-0.5-0.3c-0.2-0.1-0.3-0.1-0.4-0.2l0-0.2l0-0.2l0.1-0.2l0.1-0.1c0.1-0.2,0-0.3,0-0.5
		c0-0.1,0-0.2,0-0.4c0-0.2,0-0.3,0-0.5l0-0.1c0-0.1,0-0.3,0-0.4c0-0.2,0.2-0.4,0.2-0.6c0-0.1-0.2-0.2-0.2-0.3c-0.1-0.1,0-0.3,0-0.4
		C13,6.1,13,6,13,5.9c0-0.3,0-0.3,0-0.6c0-0.1,0-0.2,0-0.3c0-0.1,0-0.1,0-0.2c0-0.1,0.1,0,0.1-0.1l0-0.1C11.8,5.2,10.5,6,9.4,6.8
		L8.8,7.5L9.4,8L9.2,8.5c-0.3-0.3-0.9,1-0.9,1L7.7,9.4L7.5,8.9c0-0.2,0-0.3,0.1-0.5c-3.5,3.3-6,7.7-7,12.7c0.5,0,1-0.1,1.5,0
		c0.5,0.1,0.9,0,1.4,0c0.4,0,0.8-0.1,1.1-0.1c0.2,0,2.1,0.2,2.3-0.1c0-0.1,0.2-0.1,0.3-0.1c0.1,0,0.2,0,0.3,0c0.2,0,0.5,0,0.8,0
		c0.3,0,0.5-0.1,0.8-0.1c0.4,0,0.5,0,0.9-0.1l0.2,0.1c0.2-0.2,0.3-0.4,0.3-0.7c0-0.2,0.1-0.5,0.2-0.7c0-0.3,0-0.4,0-0.7
		c0-0.2,0-0.1,0-0.4c0-0.2,0-0.3,0-0.4c0-0.2,0-0.5,0-0.6c0,0-0.2-0.1-0.4-0.2c-0.1,0-0.3-0.1-0.5-0.1c-0.7,0-1.2,0.3-1.9,0.2
		c-0.2,0-0.4-0.1-0.6-0.1c-0.1,0-0.2,0-0.4,0l-0.3,0.1c-0.2,0-0.2-0.1-0.4-0.3c-0.2-0.1-0.3-0.1-0.5-0.1l-0.3,0.4
		c-0.2,0.1-0.4,0.1-0.6,0.2c-0.2,0-0.3-0.1-0.5-0.1c-0.2,0-0.4,0-0.5,0c-0.1-0.1-0.2-0.2-0.3-0.3c-0.1-0.1-0.3-0.1-0.4-0.2
		c-0.1-0.1-0.5-0.5-0.4-0.7c0-0.1,0.4-0.3,0.5-0.3c0.2,0,0.4,0.1,0.5,0.1c0.4,0,0.9,0.1,1.2,0c0.5-0.1,1-0.1,1.5-0.2
		c0.3,0,0.7-0.1,1-0.1c0.2,0,0.4-0.1,0.6-0.1c0.4-0.1,0.7-0.1,1.1-0.2c0.3-0.1,0.7-0.2,1-0.2c0.1,0,0.2,0,0.3,0
		c0.1-0.1,0.1-0.2,0.2-0.3c0.1,0,0.5-0.1,0.6,0c0.2,0,0.4,0.1,0.6,0.2c0.2,0.1,0.4,0.1,0.5,0.3c0.1,0.2,0.3,0.4,0.4,0.6
		c0.1,0.1,0.2,0.2,0.3,0.4c0.1,0.1,0,0.4,0,0.6c-0.1,0.1-0.1,0.1-0.2,0.3v0.3c0,0.3,0,0.6,0,0.9c-0.1,0.5-0.2,1.1-0.4,1.6
		c-0.1,0.1-0.1,0.3-0.1,0.4c0,0.2-0.2,0.2-0.3,0.3c0,0.1,0.7,0,0.8,0c0.3,0,0.8,0,1,0c0.4-0.1,0.7-0.2,1.1-0.2
		c0.2,0,0.4-0.1,0.6-0.1c0.4,0,0.6-0.1,0.8-0.1c0.2,0,0.3,0.1,0.5,0.1c-0.1-0.1-0.2-0.2-0.2-0.3c0-0.1-0.1-0.2-0.1-0.3
		c0-0.2-0.1-0.4-0.1-0.7c0-0.2,0.1-0.4,0.2-0.6c0.1-0.3,0-0.5,0-0.8c0-0.2,0.1-0.4,0.2-0.7c0-0.2,0-0.3,0.1-0.5
		c0.1-0.4,0.1-0.7,0-1.1l-0.2-0.8c0-0.1,0,0-0.1-0.1l-0.1-0.1c-0.1-0.1-0.1-0.1-0.1-0.2l-0.2-0.2l0.1-0.3c-0.1-0.1-0.2,0-0.4,0
		c-0.2,0-0.4,0.1-0.7,0.1c-0.2,0-0.6,0-0.8,0c-0.7,0-1.3,0.1-2,0.1c-0.5,0-1,0.1-1.5,0.2c-0.2,0-0.3,0.1-0.5,0.1c-0.2,0-0.2,0-0.4,0
		C9.7,14,8.9,14,8.5,14.2c-0.2,0.1-0.2,0.1-0.4,0.1c-0.2,0-0.5-0.1-0.7-0.1c-0.2,0-0.4,0-0.5,0c-0.1,0-0.1-0.1-0.2-0.2
		c-0.1-0.1-0.2-0.2-0.4-0.3c-0.1-0.1-0.2-0.3-0.3-0.4c-0.1-0.1-0.2-0.1-0.3-0.3l-0.1-0.4l0,0c0.1-0.1,0.3-0.1,0.4-0.2
		c0.2,0,0.2,0.1,0.4,0.1c0.2,0,0.3-0.1,0.5,0c0.1,0,0.2,0,0.4,0c0.3,0,0.5,0,0.8,0c0.3,0,0.8,0,1-0.1c0.3,0,0.9,0,1.2,0
		c0.4,0,0.4,0,0.8,0c0.4,0,0.7-0.1,1.1-0.1c1.1,0,2.1,0,3.1-0.4c0.2-0.1,0.4,0,0.5,0l0.3,0l0.2-0.1l0.3,0c0.2,0,0.4,0,0.6,0
		c0.2,0,0.3-0.1,0.5-0.1c0.2,0,0.3,0.2,0.5,0.1l0.2-0.1c0.1,0,0.2,0,0.3-0.1c0.2-0.1,0.2-0.1,0.4-0.1c0.4,0,0.7,0,1.1,0
		c0.3,0,0.6-0.1,1-0.1c0.3,0,0.4-0.1,0.7-0.2c0.2,0,0.4-0.2,0.7-0.2c0.2,0,0.6,0.1,0.8,0.1c0.3,0,0.4,0.2,0.6,0.3
		c0.2,0.1,0.1,0.4,0.4,0.4c0.1,0,0.2-0.1,0.3-0.1l0.1,0c0.2-0.3,0.3-0.6,0.5-0.9c0.2-0.2,0.4-0.3,0.6-0.4c0.2-0.2,0.4-0.5,0.6-0.7
		c0.2-0.3,0.3-0.5,0.6-0.8C27,9,27.1,8.9,27.2,8.8c0.1-0.2,0.2-0.4,0.4-0.6c0.1-0.1,0.2-0.2,0.2-0.3c0-0.1,0.1-0.2,0.1-0.3l0.2-0.3
		c0.5-0.7,0.7-1.1,1-1.9c0.1-0.3,0.1-0.4,0-0.7c0-0.2,0-0.5,0.1-0.6c0.1-0.1,0.3-0.2,0.3-0.2l0.6,0.5c0.1,0.2,0.4,0.3,0.6,0.5
		c0,0.1,0.1,0.3,0.1,0.4c0,0.2-0.1,0.2-0.1,0.4c0,0.2,0.1,0.3,0.2,0.4c0.1,0.2,0.1,0.2,0.2,0.4c0.1,0.4,0.4,0.7,0.6,1
		C32,7.6,32.2,8,32.5,8.2l0.2,0.2l0,0.2c0.1,0.1,0.2,0.2,0.3,0.3l0.2,0.2c0.1,0.1,0.1,0.1,0.2,0.2c0.3,0.3,0.5,0.5,0.8,0.7
		c0.1,0.1,0.4,0.3,0.5,0.6c0.1,0.2,0.3,0.2,0.4,0.2c0.2,0.1,0.3,0.2,0.4,0.6c-0.2,0.3-0.7,0.8-1,1c-0.2,0.1-0.4,0.1-0.6,0.1
		c-0.2,0-0.2-0.2-0.4-0.2c-0.2,0-0.3,0-0.5-0.1c-0.1,0-0.2,0-0.2-0.1l-0.2-0.3c-0.1-0.1-0.2-0.2-0.3-0.3c-0.2-0.1-0.2-0.2-0.2-0.4
		c0-0.1,0-0.3,0-0.4c0-0.1-0.1-0.3-0.2-0.4c0-0.2-0.1-0.4-0.2-0.5c-0.1-0.1-0.2-0.1-0.4-0.2c-0.2-0.2-0.3-0.5-0.4-0.8
		c-0.1-0.4-0.2-0.8-0.4-1.1c-0.1-0.2-0.2-0.3-0.4-0.4c-0.2-0.1-0.2,0-0.4,0.2c-0.1,0.1-0.2,0.4-0.3,0.5c-0.1,0.2-0.2,0.4-0.4,0.6
		c-0.3,0.4-0.4,1-0.8,1.4l-0.2,0.3l-0.2,0.2c-0.2,0.4-0.3,0.8-0.5,1c-0.2,0.2-0.3,0.3-0.4,0.5c-0.1,0.2-0.2,0.5-0.4,0.6l-0.1,0
		l0.2,0.2l0.2,0.3l0.1,0.1l-0.1,0.3c-0.2,0.1-0.5,0.1-0.7,0.3c-0.1,0.1-0.2,0.2-0.4,0.2c-0.1,0-0.2,0-0.4,0c-0.3,0-0.6,0-0.9,0
		c-0.2,0-0.4-0.1-0.6-0.2c-0.4-0.2-0.9-0.2-1.4-0.2c-0.5,0-1-0.1-1.5,0l0.1,0.1c0.1,0.1,0.3,0.2,0.4,0.3c0,0.1,0,0.2,0,0.3
		c-0.2,0-0.2,0-0.4,0c-0.2,0-0.2-0.1-0.4-0.1c-0.1,0-0.3,0-0.4,0c-0.2-0.1-0.2-0.3-0.3-0.3c0.2-0.1,0.5,0,0.6-0.1l0-0.1l-0.1,0
		c-0.1,0-0.2-0.1-0.3-0.1c-0.3-0.1-0.6,0-0.8,0c-0.2,0-1.1-0.2-0.9,0c0.1,0.1,0.3,0.3,0.3,0.6c-0.1,0.3-0.1,0.1-0.1,0.5
		c0,0.2,0,0.3-0.1,0.5l-0.4-0.1l-0.1,0.1l-0.2,0.1l0,0.3l0.2,0.2l0.2-0.2l0.1-0.1l0.1,0l0,0.3c0,0.2,0,0.4,0.1,0.6l0.1,0.3
		c0.1,0.3,0,0.6,0,0.8c0,0.1,0,0.2,0,0.3c0,0.1-0.1,0.2-0.1,0.3c0,0.4,0.2,0.9,0,1.2c-0.1,0.2-0.2,0.3-0.3,0.5
		c-0.1,0.1-0.1,0.1-0.2,0.2c-0.1,0.1-0.3,0.3-0.5,0.5c0.2,0.1,0.4,0.2,0.7,0.3c0.3,0,0.4,0,0.6,0.3c0.1,0.1,0.3,0.2,0.3,0.4l0,0.2
		L19.1,22c-0.2,0.2-0.2,0.4-0.5,0.4c-0.2,0-0.4,0-0.7,0.1c-0.3,0.1-0.3,0.1-0.6,0.3c-0.1,0.1-0.3,0-0.4,0c-0.2,0-0.4-0.1-0.6-0.2
		c-0.2-0.1-0.4-0.2-0.7-0.3c-0.2-0.1-0.4-0.2-0.6-0.3c-0.4-0.2-0.9-0.1-1.4-0.1c-0.5-0.1-1-0.2-1.6-0.1l-0.2,0
		c-0.1,0-0.2,0.1-0.3,0.1C11.5,22,11.4,22,11.2,22c-0.2,0-0.3,0-0.4,0c-0.1,0-0.1-0.1-0.4-0.2l-0.6,0c0,0.1,0.3,0.2,0.4,0.3l0,0.3
		c0,0.1,0,0.2,0,0.4c0,0.1,0,0.2,0,0.4c0,0.2-0.1,0.4,0,0.6c0,0.2,0.1,0.3,0,0.5c0,0.2,0,0.5-0.1,0.7c-0.1,0.2-0.1,0.3-0.3,0.4
		l-0.1,0.1l0.1,0c0.3,0,0.5,0,0.8-0.1c0.1,0,0.3,0,0.4-0.1c0.1,0,0.3-0.2,0.6-0.2c0.2,0,0.4,0.1,0.6,0.1c0.2,0,0.3,0,0.5,0.1
		c0.6,0.3,0.4,0,0.7,0.3c0.3,0.4,0.6,0.7,0.5,1c-0.1,0.2-0.3,0.6-0.3,0.8c0,0.2,0,0.2-0.1,0.5c0,0.2-0.1,0.5,0,0.7
		c0,0.2,0.1,0.3,0,0.5c0,0.4,0,0.5,0,0.7c0,0.3,0,0.5-0.1,0.7c-0.1,0.3-0.1,0.5-0.1,0.7c0,0.1,0.1,0.5,0,0.6l-0.3,0.2l-0.3,0.2
		c-0.2,0.1-0.3,0.3-0.5,0.4C12.2,33,12,33,11.8,33.2c-0.2,0.1-0.2,0.2-0.4,0.1c-0.1-0.4-0.3-0.8-0.2-1.2c0-0.2,0-0.2,0.1-0.4
		c0.1-0.2,0.1-0.7,0.2-0.9l0-0.3h0.1c0.1,0,0.2,0,0.3,0.1l0.2,0.2l0.1-0.1L12,30.3L11.9,30c-0.1-0.1-0.3-0.1-0.4-0.1
		c0-0.4,0.1-0.5,0.2-1c0-0.1,0-0.2,0-0.3c0-0.4-0.1-0.8-0.1-1.2l-0.2,0c-0.2-0.3-0.5-0.5-0.8-0.7c-0.1,0.3-0.6,0.3-0.9,0.3
		c-0.2,0.1-0.4,0-0.6,0c-0.2,0-0.4,0-0.6,0c-0.2,0-0.3,0-0.5,0c-0.2,0-0.3,0.1-0.4,0.2c-0.1,0-0.3,0-0.4,0c-0.8-0.1-1.6,0.2-2.4,0.2
		c-0.3,0-0.7,0-1,0c-0.1,0-0.3,0-0.4,0.1L3,27.6H2.9H2.8l-0.2,0l-0.3-0.1c-0.1-0.1-0.3-0.1-0.4-0.2l-0.3-0.1l0,0l-0.2-0.3l-0.1-0.1
		l0-0.3l0-0.3c0.1,0,0.1,0,0.2,0L1.7,26c0.2,0,0.4,0.1,0.7,0c0.4-0.1,0.8,0,1.2,0c0.4,0,0.8,0,1.2,0c0.3,0,0.5,0.1,0.8,0
		c0.1,0,0.2-0.2,0.3-0.2c0.2,0,0.4,0,0.5,0c0.3,0,0.5,0,0.7-0.1c0.3,0,0.5,0,0.8,0c0.1,0,0.2,0,0.3,0c-0.1-0.1,0-0.2,0-0.3
		c0-0.1,0-0.2-0.1-0.3C8.1,25,7.9,24.9,8,24.7c0.2-1,0.2-0.9,0.2-1.2c0-0.2,0-0.5,0-0.7c0-0.2,0-0.3,0-0.5c-0.1-0.2-0.2-0.3-0.3-0.3
		l-0.3,0c-0.3,0-0.5,0-0.7,0c-0.3,0-0.6,0.2-0.9,0.1c0-0.1-0.4-0.2-0.5-0.2c-0.2,0-0.2,0.1-0.4,0.2c-0.1,0.1-0.2,0.1-0.3,0.1
		c-0.1,0-0.3,0-0.4,0c-0.2,0-0.4,0.1-0.6,0.1c-0.7,0.1-1.4,0.1-2.1,0.1l-0.2,0l-0.1-0.1c-0.1,0-0.2,0.2-0.4,0.2
		c-0.2,0.1-0.4,0.1-0.6,0.1c-0.1,1-0.2,2.1-0.2,3.2c0,2.6,0.4,5,1.1,7.4l0.6-0.4L3,33.7c0,0-0.3,0.2-0.2,1L3,35.6l-0.7,0
		c0,0-0.3-0.5-0.7-0.9c1.5,3.9,4,7.3,7.1,9.9l0.2,0c0.1,0,0.3,0,0.4,0l0.3-0.1c0.2,0,0.7,0,0.8-0.2l0-0.2v-0.2l0-0.2
		c-0.2-0.7-0.3-0.7-0.3-0.9c0.1-0.2,0.2-0.4,0.2-0.4c-0.1,0-0.3,0-0.4-0.1c-0.2,0-0.4,0-0.6,0c-0.2,0-0.3-0.2-0.5-0.2l-0.3,0
		c-0.1,0-0.1,0.1-0.3,0L8.1,42C8,42,7.9,41.9,7.9,41.8c-0.1-0.1-0.1-0.1-0.2-0.3c-0.1-0.1-0.1-0.2-0.2-0.3c-0.1-0.1-0.1-0.2-0.1-0.3
		c0,0.1-0.3-0.8-0.2-0.6C7,40,6.9,40,7,39.7c0.1-0.4,0.1-0.7,0.3-1C7.5,38.4,7.7,38,8,37.8l0.4-0.1l0-0.2l0.2-0.1
		c0.2-0.1,0.3-0.2,0.5-0.3c0.4-0.2,0.8-0.2,1.2-0.3c0.4-0.1,0.6-0.2,1-0.2c0.3,0,0.3,0.2,0.5,0.3C12,37,12.2,37,12.4,37
		c0.3,0.1,0.5,0.2,0.8,0.3c0.1,0,0.2,0.1,0.4,0.2c0.1,0.1,0.2,0.1,0.3,0.2c0.2,0.1,0.3,0.2,0.4,0.3c0.1,0.2,0.2,0.4,0.3,0.6V39
		c0,0.1,0,0.2,0,0.5c0,0.2,0.1,0.3,0,0.5c0,0.2-0.1,0.2-0.2,0.3c-0.2,0.2-0.2,0.5-0.3,0.7c-0.1,0.2-0.3,0.6-0.6,0.7
		c-0.1,0.1-0.3,0.1-0.4,0.2c-0.1,0.1-0.3,0.2-0.4,0.2c-0.2,0.1-0.4,0.2-0.5,0.3l-0.2,0.1l-0.1,0.1l-0.2,0.1l0,0.2l0.2,0.2
		c0.2,0.4,0,0.8,0.1,0.9c0.1,0.1,0,0.6,0.1,0.6c0.1,0-0.1-0.2,0.1-0.2c0.2-0.1,1-0.1,1.2-0.2c0.6-0.2,1.1-0.3,1.7-0.4
		c0.2,0,0.3-0.1,0.5-0.1c0.2,0,0.4,0.2,0.6,0.2c0.1,0,0.3,0,0.4,0l0-0.1c-0.2-0.4-0.4-0.4-0.4-0.7c-0.1-0.3,0-0.5,0.1-0.7
		c0.2-0.1,0.4-0.2,0.5-0.3c0-0.2,0-0.5,0-0.8v0c0.2,0,0.3,0,0.5,0c0,0.2-0.2,0.4-0.2,0.7c-0.1,0.3,0,0.6,0,0.9
		c0,0.3-0.1,0.5-0.1,0.8l0,0.1c0.2,0,0.3,0,0.4,0.1c0.1,0.1,0.1,0.1,0.2,0.2c0.1,0.1,0.2,0.3,0.4,0.4c0.2,0.2,0.1,0.1,0.3,0
		c0.1,0,0.1,0,0.2,0c-0.1-0.3-0.3-0.3-0.7-0.4c0-0.2-0.1-0.3-0.1-0.5c0-0.2,0.1-0.2,0.1-0.3c0.1-0.4,0.1-0.9,0.1-1.2
		c-0.1-0.5-0.1-0.9,0.1-1.4c0.1-0.2,0.1-0.3,0-0.5c0-0.2-0.1-0.4,0-0.6c0.1-0.3,0-0.7,0-1c0-0.5,0-1.1,0-1.6c0-0.4,0-0.8,0.1-1.2
		c0-0.2,0-0.3-0.1-0.5c-0.1-0.3,0-0.3,0.2-0.5c-0.3-0.2-0.2-0.4-0.3-0.7c-0.1-0.2-0.1-0.5-0.1-0.7c0-0.3-0.1-0.5-0.1-0.8
		c0-0.1,0-0.1,0-0.2c0-0.1-0.4-0.7-0.8-0.9c-0.1,0-0.1-0.1-0.1-0.2l0-0.1l0,0l-0.2,0.2c-0.2,0.1-0.4,0.4-0.5,0.6l-0.2,0.3
		c-0.1,0.1-0.3,0.2-0.5,0.3c-0.4,0.2-0.6,0.5-1.1,0.6c-0.1,0-0.3-0.1-0.4-0.1c-0.1,0-0.3,0.1-0.4,0l-0.1-0.4c0,0,0.1-0.2,0.2-0.3
		c0-0.1,0.3-0.3,0.4-0.5c0.1-0.1,0.2-0.4,0.3-0.5c0.2-0.2,0.3-0.4,0.4-0.5c0.2-0.3,0.4-0.4,0.7-0.7c0.1-0.1,0.3-0.2,0.4-0.4
		c0.1-0.2,0.1-0.3,0.3-0.5c0.5-0.6,1.1-1.3,1.2-1.5c0.1-0.2,0.2-0.2,0.3-0.3l0.2-0.3c0.1-0.1,0.1-0.2,0.2-0.3
		c0.1-0.2,0.2-0.4,0.4-0.5c0.1-0.1,0.3-0.3,0.4-0.5l0.1-0.3l0-0.3c0-0.1,0.1-0.3,0.1-0.5c0-0.1,0-0.2,0-0.4c0-0.1,0-0.1-0.1-0.3
		c0-0.1,0.1-0.1,0-0.2c-0.1-0.1-0.2,0.1-0.4,0.1c-0.2,0-0.3,0-0.5,0c-0.1,0-0.5-0.1-0.5-0.1c-0.2,0-0.4,0-0.8,0
		c-0.3,0-0.5,0-0.8,0.1l-0.2-0.1c-0.1-0.1-0.2-0.4-0.3-0.5l-0.1-0.1L15,23.7l0-0.1l-0.1-0.5l0.1-0.2c0.1-0.1,0.5,0.1,0.6,0.2
		c0.2,0,0.5,0.1,0.7,0.1c0.1,0,0.2-0.1,0.3-0.1l0.1,0l0.1,0.1c0.1,0,0.2-0.1,0.3-0.2c0.1-0.1,0.3,0,0.4-0.1c0.3-0.1,0.5-0.1,0.8-0.1
		c0.1,0,0.3,0.1,0.4,0.1c0.2,0,0.1-0.1,0.3-0.1c0.2-0.1,0.4,0,0.6,0c0.3,0,0.5,0,0.8,0c0.3-0.1,0.5-0.2,0.8-0.3
		c0.2-0.1,0.3-0.2,0.5-0.2c0.2,0,0.4-0.1,0.6-0.1c0.3,0,0.4,0.1,0.6,0.2c0.1,0,0.7,0.2,0.4,0.2c0.1,0,0.1,0.2,0.3,0.2
		c0.2,0,0.1,0,0.3,0l0.3,0.1l0,0.2l0,0.2c0,0.1,0,0.1,0,0.2c-0.1,0.1-0.2,0.3-0.2,0.4c0,0.2-0.2,0.3-0.3,0.4l-0.2,0.2
		c-0.1,0.1-0.3,0-0.4,0c-0.3,0-0.7,0-1,0L22,24.5l-0.2,0.1c-0.1,0-0.3,0-0.4,0c-0.1,0-0.3-0.1-0.4-0.1l-0.3,0c0-0.2-0.3-0.1-0.4-0.1
		c-0.2,0.1-0.3,0-0.5,0.1l-0.1,0l0.2,0.1c0.2,0.1,0.2,0.3,0.3,0.4c0.1,0.1,0.3,0.3,0.3,0.4c0,0.1-0.2,0.5-0.1,0.6l0.1,0.2
		c0.1,0.1,0.1,0.1,0.2,0.3c0.1,0.2,0.1,0.2,0.1,0.3c0,0.1,0.1,0.2,0.1,0.3c0.1,0.1,0.2,0.2,0.2,0.4c0.1,0.3,0.3,0.5,0.5,0.7
		c0.3,0.3,0.4,0.6,0.6,0.9c0.1,0.1,0.2,0.4,0.1,0.5c0,0.2,0.1-0.1,0.3,0.1l0.2,0.2l0.2,0.1l0.1,0.1c0.1,0.1,0.2,0.2,0.3,0.3
		c0.1,0.1,0.2,0.2,0.2,0.3c0.1,0.1,0.1,0.1,0.2,0.1c0.1,0,0.2,0.1,0.3,0.2c0.1,0.1,0.2,0.1,0.2,0.3c0,0.1,0.1,0.1,0,0.2l-0.2,0.3
		c-0.1,0.1-0.3,0.2-0.4,0.3c-0.2,0.2-0.6,0.5-0.8,0.5c-0.1,0-0.2,0-0.4-0.1c-0.2,0-0.2,0-0.3-0.1c-0.1-0.1-0.2-0.1-0.4-0.2
		c-0.3-0.1-0.4-0.5-0.6-0.7c-0.1-0.1-0.2-0.2-0.2-0.3c0-0.1,0.1-0.2,0.1-0.4c-0.1-0.2-0.1-0.3-0.2-0.4L20.7,30L20.6,30
		c-0.1-0.1-0.2-0.4-0.3-0.5c0-0.2-0.2-0.3-0.2-0.5c0-0.1-0.1-0.2-0.1-0.4c-0.1-0.3-0.2-0.7-0.1-0.9c0-0.2-0.2-0.1-0.2-0.2l-0.1-0.2
		c-0.2-0.2-0.6,0.7-0.7,0.9c-0.1,0.2-0.4,0.3-0.5,0.6c-0.1,0.3-0.3,0.5-0.5,0.7c-0.1,0.1-0.2,0.3-0.3,0.4c-0.1,0.1-0.1,0.1-0.2,0.3
		c-0.1,0.2-0.3,0.3-0.4,0.5c-0.1,0.2-0.1,0.3-0.2,0.5l0,0.1c0.1-0.1,0.2-0.1,0.3-0.1c0.2,0,0.2,0,0.4,0.1c0.1,0.1,0.3,0.1,0.4,0.2
		c0.3,0.1,0.6,0.3,1,0.3c0.2,0,0.3,0,0.5,0.1l0.2,0.2c0.3,0.2,0,0.2,0.3,0.4c0.1,0.5,0,0.7-0.1,0.9c0,0.1-0.1,0.2-0.1,0.3
		c0,0.4,0,0.8,0,1.2c0,0.4,0,0.7,0.1,1.1c0.1,0.4-0.1,0.7-0.1,1.1c0,0.2,0,0.3,0,0.5c0,0.2-0.1,0.4,0,0.6c0,0.2,0.2,0.4,0.3,0.5
		c0.1,0,0.3,0.1,0.5,0l0.3-0.1c0.3-0.1,0.4-0.3,0.7-0.3c0.2,0,0.4,0,0.6,0c0.2,0,0.4,0.2,0.6,0.2c0.2,0,0.3-0.1,0.5,0
		c0.2,0.1,0.6,0.2,0.8,0.3c0.2,0.1,0.1,0.3,0.1,0.5c0,0.2,0.2,0.5,0.1,0.6c-0.1,0.3-0.5,0.6-0.8,0.6c-0.1,0-0.1,0-0.3-0.1
		c-0.2,0-0.4,0-0.6-0.1c-0.2,0-0.4-0.1-0.6-0.1l-0.2,0c-0.1,0-0.2,0-0.4,0c-0.1,0-0.3,0-0.4,0c-0.4,0-0.6-0.1-0.9-0.1L20,40
		l-0.2-0.1l-0.3-0.1l0.2-0.4l-0.5,0c-0.1,0.1-0.1,0.1-0.2,0.2c-0.1,0-0.1,0.1,0,0.2l0,0.2c-0.1,0-0.2,0.1-0.4,0
		c0,0.1,0.1,0.4,0.2,0.5l0.1-0.1c0.1-0.1,0.1-0.1,0.2-0.1L19,40.1c0.3,0,0.6-0.1,0.9,0c0,0.2,0.1,0.4,0.1,0.6c0,0.2-0.3,0.3-0.3,0.5
		c0,0.2,0,0.2,0,0.3c0.1,0.3,0,0.7,0,1.1c0,0.2,0.1,0.7-0.1,0.9c0.2,0.1,0.2,0,0.2,0.2c0,0.2,0,0.5,0,0.7c0,0.4,0.1,0.8,0.1,1.2
		c0,0.3,0,0.5,0,0.8c0,0.2-0.1,0.3-0.1,0.5c0,0.3,0,0.5,0,0.8c0,0.2,0.1,0.5,0.1,0.7c0,0.2-0.1,0.4-0.2,0.6c0,0.1-0.2,0.2-0.2,0.3
		c-0.1,0.2,0,0.3-0.1,0.5c-0.4-0.1-0.9-0.2-1.3-0.3l0-0.1c0-0.2,0-0.1-0.1-0.3l0-0.4c0-0.1-0.1,0-0.1-0.1c-0.1-0.2-0.1-0.4-0.1-0.6
		c0-0.3,0-0.6,0-0.9l0-0.2c0-0.1,0-0.1,0.1-0.3c0.1-0.2,0-0.4,0-0.6c0-0.1,0.1-0.4-0.1-0.5c-0.1-0.1-0.3,0.3-0.4,0.3
		c-0.1,0-0.3-0.1-0.4-0.1c-0.1,0-0.2,0-0.3,0c-0.5-0.1-1-0.2-1.5-0.2c-0.2,0-0.4,0.1-0.6,0.1c-0.2,0-0.3,0-0.5,0c-0.2,0-0.4,0-0.6,0
		c-0.1,0-0.1-0.2-0.2-0.3c-0.1,0.1,0,0.2-0.1,0.3l-0.5,0.1c-0.3,0.1-0.9,0-1.2,0c-0.2,0-0.4,0-0.6,0c-0.2,0.1-0.4,0-0.5,0.1l-0.1,0
		c3.9,2.9,8.8,4.6,14,4.6c3.4,0,6.7-0.7,9.7-2c0-0.1,0-0.2,0-0.5c0-0.3,0-0.5,0-0.8c0-0.3-0.1-0.3-0.1-0.6c0-0.5,0-0.8,0.1-1.2
		c0-0.2,0.1-0.5,0.1-0.7c0.1-0.3,0-0.8-0.1-1.1c0-0.3,0-0.7,0-1c0-0.3,0-0.9,0-1.2c0,0,0.4-0.1,0.3-0.2c-0.1-0.1-0.7,0-1,0l0,0.2
		c-0.2,0-0.3,0-0.4,0.1l-0.2,0.2c-0.2,0-0.3-0.1-0.4-0.1c-0.1,0-0.4,0-0.5,0.1c-0.1,0-0.2,0-0.3,0c-0.2,0-0.3,0.1-0.5,0.1
		c-0.2,0-0.3-0.1-0.4-0.2L30.1,41c-0.1-0.1-0.1-0.2-0.2-0.3c0-0.1,0-0.1-0.1-0.2c-0.1-0.1,0.1-0.3,0.1-0.5c0.2,0,0.2,0,0.4-0.1
		c0.2-0.1,0.2-0.2,0.4-0.2c0.3,0,0.6,0,0.9,0.1c0.2,0,0.5-0.1,0.7-0.1c0.1,0,0.2-0.1,0.3-0.1c0.2,0,0.4,0,0.6,0
		c0.1,0,0.6,0.2,0.4-0.1c-0.1-0.1,0.2-0.3,0.2-0.4L33.7,39l0-0.1c0-0.4-0.1-0.8,0-1.2l0.2,0c-0.1-0.1,0-0.3-0.2-0.5
		c-0.1-0.1-0.2-0.1-0.2-0.3c0-0.1,0-0.3,0-0.4c0-0.1,0-0.2,0-0.4c0-0.3-0.2-0.4-0.4-0.6l-0.2-0.3L32.7,35l-0.1-0.2l-0.1-0.2
		l-0.2-0.1c0-0.1,0-0.1,0.1-0.2l0.1-0.2l0.2-0.2c0.1,0,0.3,0.1,0.5,0c0.2,0,0.4,0.3,0.6,0.4c0.2,0.1,0.3,0.1,0.5,0.3l0.1-0.1h0.2
		c0.2,0,0.5,0.1,0.7,0.2c0.3,0.1,0.1,0.2,0.2,0.4l0.1,0.2c0.1,0.2-0.1,0.3-0.1,0.5c-0.1,0-0.1,0-0.3,0L35.1,36l-0.4-0.2L34.4,36
		c-0.1,0.2-0.2,0.5-0.2,0.5l0.2,0.2l0.3,0.3c0.2,0.1,0.1-0.2,0.1-0.3c0-0.1,0.2-0.3,0.3-0.4c0.2-0.2,0.1-0.1,0.2,0.1
		c0,0.1,0.1,0.1,0.1,0.3c0,0.2-0.2,0.4-0.2,0.7l-0.4,0c-0.1,0-0.2,0-0.3,0l-0.1,0.3c0,0.1,0.2,0.3,0.1,0.4c-0.1,0.1-0.1,0-0.2-0.1
		c-0.1-0.2,0-0.2-0.2-0.2L34,38.4c0,0.2,0.2,0.2,0.2,0.4c0,0.2,0.1,0.3,0.3,0.5c0.1,0,0.3,0,0.4-0.2l0.4-0.1l0.2,0
		c0,0.3-0.1,0.6,0.1,0.8c0.2,0.2,0.1,0.6,0.1,0.9l-0.2,0.1l0,0.4c0,0.4-0.2,0.7-0.1,1.1c0,0.3,0,0.5,0,0.8c0,0.3,0,0.5,0,0.8
		c0,0.3,0.1,0.5,0.1,0.8c0,0.1,0,0.3,0,0.4c-0.1,0.2,0,0.2-0.1,0.4c0,0.2,0,0.4,0,0.7c0.1,0.2,0,0.2,0.1,0.4c0,0.2,0.1,0.3,0,0.6
		c-0.1,0.1-0.1,0.2-0.2,0.3c0,0.1,0,0.2-0.1,0.3c0.6-0.3,1.2-0.6,1.8-1c0-0.2,0-0.4,0-0.6c0-0.4,0.1-0.6,0-0.8l0-0.4
		c0-0.1,0-1.7,0-1.9c0-0.2,0.2-1.3,0-1.4c-0.1-0.1-0.1-0.5-0.1-0.7c0-0.2,0-0.4-0.1-0.6c0-0.4-0.1-1.3,0-1.6c0-0.3,0.1-0.5,0-0.7
		c0-0.2-0.1-0.6-0.1-0.7c0-0.2,0-0.3,0-0.5l0-0.3l0-0.1l0-0.2l0-0.1l-0.1-0.3l-0.1-0.2l0.1-0.3l0-0.2c0-0.2,0.1-0.3,0.3-0.2l0-0.2
		l-0.1-0.1l-0.2-0.2c-0.1-0.1,0.1-0.3,0-0.3c-0.1,0-0.3,0.1-0.4,0c-0.1,0-0.2-0.2-0.3-0.3l-0.2-0.1c0,0-0.2-0.2-0.6-0.5
		c0-0.2-0.2-0.4-0.1-0.5l0.1-0.1l0.1-0.1l0.1-0.1l0.1-0.1l0.2,0l0.2,0.1l0.2,0.1l0.1,0.1l0.2,0.1c0.1,0,0.3,0,0.4,0.1
		c0.1,0,0.3,0,0.4,0c0.1,0,0.2,0,0.3,0c0.2,0,0.4,0.2,0.6,0.3C38,33,38,32.8,37.9,32.7l0-0.2l0.1-0.2l0.1-0.4L38,31.7l0-0.1
		c-0.1,0-0.1,0-0.2-0.2l0.1-0.2l-0.3,0.1c0,0,0-0.1-0.1-0.3l0.1-0.3c0,0,0.2,0.2,0.4,0.3l0-0.1c0-0.5,0.3-0.7,0.5-1.1
		c0.1-0.2,0.2-0.4,0.4-0.5c0.2-0.1,0.4-0.2,0.6-0.3c0.1-0.1,0.2-0.3,0.3-0.4c0.1-0.1,0.3-0.1,0.5-0.2c0.4,0,0.7,0,1.1-0.1
		c0.4,0,0.7,0,1.1,0c0.4,0,0.9,0.2,1.8,0.5c0.1,0,0.2,0.2,0.3,0.3c0.1,0.1,0.1,0.2,0.2,0.3c0,0.1,0.2,0.2,0.3,0.4l0.1-0.1
		c-0.1-0.1-0.1-0.3-0.2-0.4l0-0.3c0-0.1,0-0.2,0-0.4c0-0.2,0-0.5,0-0.7c0-0.2,0.1-0.3,0.1-0.5c0-0.2,0-0.4-0.1-0.5
		c0-0.3-0.1-0.6-0.1-1c0-0.2-0.1-0.3-0.1-0.5c-0.1-0.2,0-0.3-0.2-0.3c-0.1,0-0.3,0-0.4,0c-0.1,0-0.3,0.1-0.4,0.2
		c-0.4,0.1-0.8,0.3-1.2,0.3c-0.2,0-0.2,0-0.4-0.1c-0.2-0.1-0.3-0.1-0.5-0.1c-0.2,0-0.4,0.1-0.6,0.1c-0.2,0.1-0.3,0.1-0.5,0
		c-0.1-0.1-0.3-0.1-0.5-0.2l-0.1-0.2c-0.1-0.1-0.1-0.4-0.2-0.4l0-0.3c0.3,0,0.3,0,0.5-0.1c0.2,0,0.4-0.1,0.6-0.1
		c0.2,0,0.3,0,0.4-0.1c0.1-0.1,0.1-0.1,0.3-0.1c0.1,0,0.3,0,0.4-0.1c0.4-0.1,0.7-0.2,1-0.2c0.3,0,0.7,0.1,1,0c0.3,0,0.4,0.2,0.7,0.3
		l0.2-0.1c0-0.2-0.1-0.1-0.1-0.2c-0.1-0.1,0-0.2,0-0.3c0-0.2,0.1-0.4,0.1-0.5c0-0.1,0.1-0.1,0-0.3l-0.1-0.3c0-0.2,0-0.4-0.1-0.5
		c0-0.2,0-0.3,0-0.5c-0.2,0-0.2,0.1-0.4,0.2c-0.1,0.1,0,0.2-0.3,0.2c-0.4,0.1-1.1,0.4-1.5,0.3c-0.2,0-0.4,0-0.5,0
		c-0.2,0-0.3,0-0.4-0.1l-0.1-0.1l-0.3,0c-0.2,0-0.4,0-0.6,0C40.6,22,40,21.6,40,22.2c0.1,0.1,0.1,0.1,0.2,0.3l0,0.2l-0.1,0.2
		c0,0.1,0.1,0.2,0,0.4c-0.1,0.4-0.4,0.6-0.4,1c0,0.1-0.1,0.4-0.1,0.5c0,0.1,0.1,0.1,0,0.3c-0.1,0.1-0.1,0.2-0.2,0.3
		c-0.1,0.2-0.1,0.2-0.3,0.3c-0.2,0.1-0.4,0.1-0.7,0.2c-0.2,0.1-0.4,0.3-0.6,0.4c-0.1,0.1-0.1,0-0.2,0.1c-0.3,0.1-0.7,0.2-1,0.4
		c-0.3,0.2-0.6,0.5-1,0.4c-0.3-0.1-0.5,0-0.8,0c-0.2,0-0.4-0.1-0.6-0.2c-0.1-0.1-0.3-0.1-0.5-0.3c-0.1-0.1-0.2-0.3-0.3-0.4
		c-0.2-0.2-0.5-0.5-0.7-0.7L32.7,25c-0.1-0.2-0.2-0.3-0.3-0.5c-0.1-0.1-0.2-0.2-0.3-0.3L32,23.9c-0.1-0.2-0.2-0.1-0.1-0.4
		c0.1-0.3,0.2-0.6,0.3-0.8c0.1-0.2,0.1-0.4,0.3-0.6c0.1-0.1,0.2-0.3,0.3-0.5c0-0.1,0-0.2,0.1-0.4c0-0.1,0.1-0.1,0.2-0.2
		c0.1-0.2,0.4-0.3,0.7-0.2h0c0.2-0.1-0.2-0.1-0.1-0.2l0.1-0.1l0.1-0.1c0.3,0,0.7-0.1,0.9-0.1c0.4,0,0.6-0.2,0.9-0.3l0.3-0.1
		c0.1,0,0.2,0.1,0.3,0.2c0.1,0.1,0.3,0,0.5,0c0.4,0,0.7,0.1,1.1,0.3c0.1,0.1,0.3,0.2,0.4,0.2l0.3,0.2c0.2,0.1,0.3,0.2,0.5,0.3
		c0.2,0.1,0.3,0.3,0.5,0.4c0.2,0.1,0.2,0.2,0.3,0.4c0.2,0.1,0.1-0.7,0.2-0.7c0.1,0,0.2,0,0.4,0c0.2-0.1,0.4,0,0.6,0
		c0.2,0,0.4-0.1,0.6-0.1l0.3-0.1c0.1-0.1,0.3-0.1,0.4-0.1c0.2-0.1,0.3,0,0.5-0.1c0.2,0,0.3,0,0.5-0.1l0.3-0.1c0.2-0.1,0.4,0,0.6,0
		c0.2,0,0.1-0.1,0.7,0c0.2,0,0.2,0,0.5-0.1c0.2,0.1,0.2,0.3,0.4,0.2c0.1,0,0.2-0.2,0.3-0.2c0.2,0,0.4,0,0.4,0c0-0.1-0.1-0.3-0.1-0.4
		c-0.1-0.3-0.3-0.1-0.8-0.1c-0.1,0.1-0.2,0.1-0.3,0.2c-0.1-0.1-0.1,0-0.1-0.1l0-0.2c0-0.1,0-0.3,0-0.4l0-0.2l0.1-0.2l0.3-0.1
		c0-0.2-0.4-0.5-0.6-0.6c-0.1-0.1-0.3-0.5-0.4-0.7c0-0.1,0-0.1-0.1-0.2c-0.2-0.1-0.2-0.1-0.3-0.1c-0.2-0.2-0.2-0.2-0.4-0.4
		c-0.1-0.2,0-0.3,0.1-0.4c0.2-0.2,0.2-0.1,0.4-0.2c0.2-0.1,0.3-0.1,0.5,0c0.1,0.1,0.3,0.1,0.5,0.2c0.2,0.1,0.3,0.1,0.5,0.2
		c0.2,0.1,0.4,0.1,0.6,0.3c0.1,0.1,0.3,0,0.4,0C46.7,17.1,46.7,17.2,46.9,17.4 M10.9,37.5c0.1,0.1,0.2,0.2,0.2,0.3L10.7,38l-0.2,0.2
		l-0.2,0.1c-0.2,0-0.4,0.1-0.6,0.1c-0.2,0-0.3-0.1-0.4,0.1l-0.1,0.1L9,38.5c-0.1,0.1-0.2,0.3-0.3,0.3c-0.1,0.1-0.2,0.3-0.2,0.5
		c0,0.2-0.1,0.2-0.1,0.4c0,0.1,0,0.2,0.1,0.3l0.2,0.3c0.1,0.2,0.1,0.4,0.2,0.5c0.4,0.3,0.7,0.5,1.3,0.6c0.2,0.1,0.4,0,0.6,0
		c0.1,0,0.3,0,0.4,0l0.2-0.1c0.2-0.1,0.4-0.3,0.5-0.4c0.1-0.1,0.3-0.2,0.4-0.4c0.1-0.1,0.1-0.2,0.2-0.4c0-0.1,0-0.2,0.1-0.3
		c0.1-0.1,0.2-0.1,0.2-0.2c0-0.1,0-0.1,0-0.2c-0.2-0.3-0.1-0.8-0.3-1.1l-0.3-0.1c0-0.1-0.1-0.1-0.3-0.1c-0.1,0-0.2-0.1-0.3-0.1
		l-0.3-0.1l-0.1-0.1l-0.1-0.2L10.9,37.5z M39.5,31.5L39.5,31.5c0.1,0.2,0.1,0.3,0.1,0.4c0,0.1,0,0.1,0.1,0.2
		c0.1,0.2,0.1,0.2-0.1,0.3c0,0,0,0.3,0.1,0.2c0-0.1,0-0.1,0.1-0.1c0.3,0.2,0.6,0.6,0.7,0.5c0.1,0,0.3,0.1,0.4,0.2c0,0,0,0.1,0.1,0.2
		c0.1,0.1,0.2,0.2,0.4,0.2c0.1,0,0.2,0.2,0.4,0.2c0,0,0.5,0,0.7-0.2c0.2-0.2,0.3-0.3,0.6-0.4c0.2-0.1,0.7-0.1,0.8-0.2l0.2-0.2
		c0.2-0.2,0.2-0.4,0.3-0.7c0-0.2,0.1-0.4,0.1-0.6l0-0.3c0-0.1,0-0.2,0-0.3c0-0.3-0.5-0.6-0.5-0.9c0-0.2-0.1-0.3-0.3-0.4
		c-0.1,0-0.2,0.4-0.4,0.4c-0.1,0-0.1,0-0.3,0c-0.3-0.1-0.7-0.3-1.1-0.3c-0.1,0-0.2-0.1-0.3-0.1l-0.1,0L41.2,30
		c-0.2,0.1-0.3,0.1-0.5,0.1c-0.3,0-0.3,0.2-0.5,0.4c-0.1,0.2-0.2,0.3-0.3,0.5l-0.1,0.4l-0.3,0c-0.1,0-0.4,0-0.5,0l0,0.1
		c0,0,0,0.2,0.2,0.2L39.5,31.5z M34.3,23L34.3,23l0-0.4c0-0.1-0.2-0.2-0.3-0.2l-0.2,0.2c-0.1,0.1-0.3,0.2-0.2,0.3l0.2,0.1
		c0,0,0.2,0.1,0.3,0.1l0,0.2l-0.3,0.2l-0.1,0.1l0,0.1l0.1,0.1L34,24l0,0l0.1,0.2c0.1,0.1,0.1,0.2,0.2,0.3c0.1,0.1,0.3,0.1,0.4,0.2
		l0,0l0.1,0.1l0.2,0.2l0.1,0.1c0.1,0.1,0.1,0.2,0.3,0.2c0.3,0.1,0.5,0.1,0.8,0.1l0.3,0l0.2-0.3c0.1-0.1,0.3,0,0.5-0.1
		c0.1,0,0.3-0.1,0.4-0.2c0.2-0.2,0.4-0.5,0.5-0.7c0.2-0.3,0.2-0.7,0.1-1.1c-0.1-0.4-0.1-0.8-0.4-0.9L37.7,22l-0.1-0.1
		c-0.1-0.1-0.4,0-0.6,0c-0.4,0-1.1-0.2-1.4-0.1c-0.1,0.1-0.2,0.2-0.3,0.3c-0.2,0.1-0.1,0.2-0.3,0.3c-0.2,0.2-0.2,0.3-0.3,0.5
		C34.6,23,34.5,23,34.3,23 M48.5,26.1c0-2.6-0.4-5.1-1.2-7.5l0,0c-0.1,0.3,0,0.3-0.1,0.5c-0.1,0.2-0.2,0.9-0.2,1c0,0.2,0,0.4,0,0.5
		c0,0.2,0,0.3,0,0.4c0,0.2,0,0.4,0,0.6c0,0.4,0,0.6,0,1c0,0.4,0.1,0.5,0.1,0.9c0,0.4-0.1,0.4-0.1,0.6c-0.1,0.5,0,1,0,1.6
		c0,0.2,0.1,0.4,0.1,0.7c0,0.2-0.1,0.4-0.1,0.7c0,0.3,0,0.7,0,1c0,0.3,0,0.6,0,0.9l-0.1,0.2c0,0.1,0,0.2,0,0.3c0,0.1,0,0.2,0,0.4
		c0.1,0.2-0.2,0.3-0.2,0.5l-0.2,0.3c-0.1,0.1-0.2,0-0.4,0.1c-0.1,0.1-0.1,0.3-0.1,0.5c0.1,0.4,0.1,0.7,0,1.1L46,32.7l0.1,0.1l0,0.1
		l0,0.2c-0.1,0.2-0.2,0.4-0.3,0.6c-0.1,0.1-0.2,0.2-0.3,0.3c-0.2,0.2-0.3,0.2-0.5,0.2c-0.2,0.1-0.3,0.2-0.4,0.3
		c-0.2,0.1-0.3,0.1-0.4,0.3c-0.1,0.1-0.3,0.2-0.4,0.3c-0.2,0.1-0.2,0.1-0.4,0.1c-0.4,0.1-0.7,0.2-1.1,0.3c-0.3,0-0.5-0.1-0.8-0.1
		c-0.2,0-0.3-0.1-0.5-0.1c-0.2,0-0.3-0.1-0.5-0.2c-0.2-0.1-0.4-0.2-0.6-0.3c-0.5-0.2-0.8-0.7-0.9-0.9c-0.1-0.1-0.2-0.2-0.3-0.3l0,0
		c0,0.2,0.2,0.2,0.3,0.3c0.1,0.1,0.1,0.2,0.1,0.3l0,0.3c0,0.2-0.3,0.3-0.3,0.5c0,0.2,0.2,0.3,0.2,0.5c0,0.2-0.1,0.3-0.1,0.4
		c-0.1,0.2,0,0.4,0,0.6c0,0.2-0.1,0.5,0,0.7c0.1,0.2,0.1,0.4,0,0.6c-0.1,0.3,0,0.4,0,0.7c0.1,0.4,0,0.8,0,1.1c0,0.4,0,0.9,0,1.3
		c0,0.2,0,0.4,0,0.6c0,0.1-0.1,0.1-0.2,0.2c-0.1,0.2,0,0.4,0,0.6c0.1,0.4,0,0.9,0,1.3c0,0.5,0,1,0,1.4c0,0.1,0,0.2,0,0.3
		c2.3-1.7,4.3-3.8,5.9-6.2c-0.1-0.1-0.1-0.2-0.2-0.3l0.4-0.7l-0.9,0.5c0,0,0.1-0.5-0.3-1.1l0.4-1.1c0,0,0.9,1.1,1.5,1
		C47.4,34.1,48.5,30.3,48.5,26.1"/>
	<g>
		<g>
			<path class="st1" d="M69.7,43.8h-1.2v2.4h-2.1v-2.4h-4.3v-1.9l4-6.7h2.4v6.9h1.2V43.8z M66.4,42.1v-4.8l-2.7,4.8H66.4z"/>
		</g>
		<g>
			<path class="st1" d="M62.5,12.6c0.3-0.7,1-1.5,2.2-2.3c1-0.7,1.6-1.2,1.9-1.5c0.5-0.5,0.7-1,0.7-1.6c0-0.5-0.1-0.9-0.4-1.2
				c-0.3-0.3-0.6-0.5-1.1-0.5c-0.7,0-1.1,0.2-1.3,0.7c-0.1,0.3-0.2,0.7-0.2,1.4h-2.1c0-0.9,0.2-1.7,0.5-2.3c0.6-1.1,1.6-1.7,3.1-1.7
				c1.2,0,2.1,0.3,2.8,1c0.7,0.6,1,1.5,1,2.6c0,0.8-0.2,1.5-0.7,2.2c-0.3,0.4-0.8,0.9-1.6,1.4l-0.9,0.6c-0.5,0.4-0.9,0.7-1.1,0.8
				c-0.2,0.2-0.4,0.4-0.5,0.6h4.8v1.9h-7.5C62,13.9,62.1,13.2,62.5,12.6z"/>
			<path class="st1" d="M70.9,10c0.3-0.5,0.7-0.9,1.2-1.1c-0.5-0.4-0.9-0.7-1-1.2c-0.2-0.4-0.2-0.8-0.2-1.2c0-0.8,0.3-1.5,0.9-2.1
				c0.6-0.6,1.5-0.9,2.6-0.9c1.1,0,2,0.3,2.6,0.9c0.6,0.6,0.9,1.3,0.9,2.1c0,0.4-0.1,0.7-0.2,1.2c-0.2,0.4-0.5,0.8-1,1.1
				c0.5,0.3,1,0.7,1.2,1.2c0.3,0.5,0.4,1.1,0.4,1.7c0,0.9-0.3,1.7-1,2.4c-0.7,0.7-1.6,1-2.9,1c-1.2,0-2.2-0.3-2.8-1
				c-0.6-0.7-1-1.4-1-2.4C70.5,11,70.7,10.5,70.9,10z M73.2,12.8c0.3,0.3,0.7,0.5,1.2,0.5c0.5,0,0.9-0.1,1.2-0.5
				c0.3-0.3,0.4-0.7,0.4-1.3c0-0.6-0.1-1-0.4-1.3c-0.3-0.3-0.7-0.4-1.2-0.4c-0.5,0-0.9,0.1-1.2,0.4c-0.3,0.3-0.4,0.7-0.4,1.3
				C72.8,12.1,72.9,12.5,73.2,12.8z M73.3,7.8c0.2,0.3,0.6,0.4,1,0.4c0.4,0,0.8-0.1,1-0.4c0.2-0.3,0.4-0.6,0.4-1
				c0-0.4-0.1-0.8-0.4-1c-0.2-0.2-0.6-0.4-1-0.4c-0.4,0-0.8,0.1-1,0.4C73.1,6,73,6.3,73,6.8C73,7.2,73.1,7.5,73.3,7.8z"/>
			<path class="st1" d="M78.9,8V6.5h1.2V4.2h2.1v2.3h1.3V8h-1.3v4.4c0,0.3,0,0.6,0.1,0.6c0.1,0.1,0.3,0.1,0.8,0.1c0.1,0,0.1,0,0.2,0
				s0.1,0,0.2,0v1.6l-1,0c-1,0-1.7-0.1-2.1-0.5c-0.2-0.2-0.4-0.6-0.4-1.2V8H78.9z"/>
			<path class="st1" d="M90.9,6.5c0.4,0.2,0.8,0.5,1,0.8c0.2,0.3,0.4,0.6,0.4,1c0.1,0.3,0.1,0.9,0.1,1.6v4.9h-2.2V9.7
				c0-0.4-0.1-0.8-0.2-1.1C89.8,8.2,89.4,8,88.9,8c-0.6,0-1,0.2-1.3,0.6c-0.3,0.4-0.4,0.9-0.4,1.6v4.5H85V3.5h2.2v4
				c0.3-0.5,0.7-0.8,1.1-1c0.4-0.2,0.8-0.3,1.3-0.3C90,6.2,90.5,6.3,90.9,6.5z"/>
			<path class="st1" d="M107.3,4.7c0.3,0.5,0.5,1.1,0.5,1.7c0,0.7-0.2,1.2-0.5,1.7c-0.2,0.2-0.5,0.4-0.9,0.6c0.6,0.2,1,0.5,1.3,1
				c0.3,0.5,0.4,1,0.4,1.6c0,0.7-0.2,1.3-0.5,1.8c-0.2,0.4-0.5,0.6-0.8,0.9c-0.4,0.3-0.8,0.5-1.3,0.6s-1,0.2-1.6,0.2h-5V3.5h5.4
				C105.8,3.5,106.7,3.9,107.3,4.7z M101.2,5.4v2.5h2.7c0.5,0,0.9-0.1,1.2-0.3c0.3-0.2,0.5-0.5,0.5-1c0-0.5-0.2-0.9-0.6-1
				c-0.3-0.1-0.8-0.2-1.3-0.2H101.2z M101.2,9.8v3h2.7c0.5,0,0.9-0.1,1.1-0.2c0.5-0.2,0.7-0.7,0.7-1.4c0-0.6-0.2-1-0.7-1.2
				c-0.3-0.1-0.6-0.2-1.1-0.2H101.2z"/>
			<path class="st1" d="M110.2,3.5h2.4v6.9c0,0.8,0.1,1.3,0.3,1.7c0.3,0.6,0.9,0.9,1.8,0.9c0.9,0,1.6-0.3,1.8-0.9
				c0.2-0.4,0.3-0.9,0.3-1.7V3.5h2.4v6.9c0,1.2-0.2,2.1-0.6,2.8c-0.7,1.2-2,1.8-3.9,1.8c-1.9,0-3.3-0.6-3.9-1.8
				c-0.4-0.7-0.6-1.6-0.6-2.8V3.5z"/>
			<path class="st1" d="M123.1,11.3c0.1,0.5,0.2,0.9,0.4,1.2c0.4,0.5,1.1,0.7,2,0.7c0.6,0,1-0.1,1.4-0.2c0.7-0.2,1-0.7,1-1.3
				c0-0.4-0.2-0.7-0.5-0.9c-0.3-0.2-0.8-0.4-1.6-0.5l-1.2-0.3c-1.2-0.3-2-0.6-2.5-0.9c-0.8-0.5-1.1-1.3-1.1-2.4c0-1,0.4-1.8,1.1-2.5
				c0.7-0.7,1.8-1,3.3-1c1.2,0,2.2,0.3,3.1,0.9c0.8,0.6,1.3,1.5,1.3,2.7h-2.2c0-0.7-0.3-1.2-0.9-1.4c-0.4-0.2-0.8-0.3-1.4-0.3
				c-0.6,0-1.1,0.1-1.5,0.4c-0.4,0.2-0.6,0.6-0.6,1c0,0.4,0.2,0.7,0.5,0.9c0.2,0.1,0.7,0.3,1.5,0.5l2,0.5c0.9,0.2,1.5,0.5,1.9,0.8
				c0.7,0.5,1,1.3,1,2.3c0,1-0.4,1.9-1.2,2.6c-0.8,0.7-1.9,1-3.4,1c-1.5,0-2.6-0.3-3.5-1c-0.8-0.7-1.3-1.6-1.3-2.8H123.1z"/>
			<path class="st1" d="M135,3.5h2.6l4,11.3h-2.5l-0.7-2.3h-4.1l-0.8,2.3H131L135,3.5z M134.9,10.5h2.9l-1.4-4.4L134.9,10.5z"/>
			<path class="st1" d="M143,3.5h2.5l4.4,7.8V3.5h2.2v11.3h-2.3l-4.6-8v8H143V3.5z"/>
		</g>
		<g>
			<path class="st1" d="M65.1,30.4h-2.3V19.1h2.3V30.4z"/>
			<path class="st1" d="M73.6,22.5c0.5,0.5,0.8,1.2,0.8,2.2v5.6h-2.2v-5.1c0-0.4-0.1-0.8-0.2-1c-0.2-0.4-0.6-0.6-1.2-0.6
				c-0.7,0-1.2,0.3-1.5,0.9c-0.1,0.3-0.2,0.8-0.2,1.3v4.5h-2.1v-8.3h2.1v1.2c0.3-0.4,0.5-0.7,0.8-0.9c0.4-0.3,1-0.5,1.7-0.5
				C72.4,21.9,73.1,22.1,73.6,22.5z"/>
			<path class="st1" d="M75.6,23.7v-1.6h1.1v-2.3h2.1v2.3h1.3v1.6h-1.3v4.4c0,0.3,0,0.6,0.1,0.6c0.1,0.1,0.3,0.1,0.8,0.1
				c0.1,0,0.1,0,0.2,0c0.1,0,0.1,0,0.2,0v1.6l-1,0c-1,0-1.7-0.1-2.1-0.5c-0.2-0.2-0.4-0.6-0.4-1.2v-5.1H75.6z"/>
			<path class="st1" d="M86.8,22.2c0.6,0.3,1,0.7,1.4,1.2c0.3,0.5,0.6,1.1,0.7,1.7c0.1,0.4,0.1,0.9,0.1,1.7H83
				c0,0.8,0.3,1.4,0.9,1.8c0.3,0.2,0.7,0.3,1.2,0.3c0.5,0,0.9-0.1,1.2-0.4c0.2-0.1,0.3-0.3,0.4-0.6h2.2c-0.1,0.5-0.3,1-0.8,1.5
				c-0.7,0.8-1.8,1.2-3.1,1.2c-1.1,0-2-0.3-2.9-1c-0.8-0.7-1.2-1.8-1.2-3.3c0-1.4,0.4-2.5,1.1-3.3c0.7-0.8,1.7-1.2,2.9-1.2
				C85.6,21.8,86.3,22,86.8,22.2z M83.6,24.1c-0.3,0.3-0.5,0.7-0.6,1.3h3.7c0-0.6-0.2-1-0.6-1.3c-0.3-0.3-0.8-0.4-1.3-0.4
				C84.4,23.6,83.9,23.8,83.6,24.1z"/>
			<path class="st1" d="M94.6,21.9c0,0,0.1,0,0.2,0v2.2c-0.1,0-0.3,0-0.4,0c-0.1,0-0.2,0-0.3,0c-0.9,0-1.4,0.3-1.7,0.9
				c-0.2,0.3-0.2,0.8-0.2,1.5v4H90v-8.3h2v1.5c0.3-0.6,0.6-0.9,0.9-1.1c0.4-0.3,0.9-0.5,1.6-0.5C94.5,21.9,94.6,21.9,94.6,21.9z"/>
			<path class="st1" d="M102.6,22.5c0.5,0.5,0.8,1.2,0.8,2.2v5.6h-2.2v-5.1c0-0.4-0.1-0.8-0.2-1c-0.2-0.4-0.6-0.6-1.2-0.6
				c-0.7,0-1.2,0.3-1.5,0.9c-0.1,0.3-0.2,0.8-0.2,1.3v4.5H96v-8.3h2.1v1.2c0.3-0.4,0.5-0.7,0.8-0.9c0.4-0.3,1-0.5,1.7-0.5
				C101.4,21.9,102.1,22.1,102.6,22.5z"/>
			<path class="st1" d="M108.6,25.3c0.4-0.1,0.7-0.1,0.9-0.2c0.3-0.1,0.5-0.3,0.5-0.6c0-0.3-0.1-0.6-0.4-0.7c-0.2-0.1-0.6-0.2-1-0.2
				c-0.5,0-0.9,0.1-1.1,0.4c-0.2,0.2-0.3,0.4-0.3,0.8h-2.1c0-0.7,0.2-1.3,0.6-1.8c0.6-0.7,1.5-1.1,2.9-1.1c0.9,0,1.7,0.2,2.4,0.5
				c0.7,0.4,1,1,1,2v3.8c0,0.3,0,0.6,0,1c0,0.3,0.1,0.5,0.1,0.6c0.1,0.1,0.2,0.2,0.3,0.3v0.3h-2.3c-0.1-0.2-0.1-0.3-0.1-0.5
				c0-0.1,0-0.3-0.1-0.5c-0.3,0.3-0.6,0.6-1,0.8c-0.5,0.3-1,0.4-1.6,0.4c-0.7,0-1.4-0.2-1.8-0.6s-0.7-1-0.7-1.8c0-1,0.4-1.8,1.2-2.2
				c0.4-0.2,1.1-0.4,1.9-0.5L108.6,25.3z M109.9,26.3c-0.1,0.1-0.3,0.2-0.4,0.2c-0.1,0.1-0.3,0.1-0.6,0.1l-0.5,0.1
				c-0.5,0.1-0.8,0.2-1,0.3c-0.3,0.2-0.5,0.5-0.5,0.9c0,0.4,0.1,0.6,0.3,0.8c0.2,0.2,0.5,0.2,0.7,0.2c0.5,0,0.9-0.1,1.3-0.4
				c0.4-0.3,0.6-0.8,0.6-1.5V26.3z"/>
			<path class="st1" d="M113.1,23.7v-1.6h1.1v-2.3h2.1v2.3h1.3v1.6h-1.3v4.4c0,0.3,0,0.6,0.1,0.6c0.1,0.1,0.3,0.1,0.8,0.1
				c0.1,0,0.1,0,0.2,0c0.1,0,0.1,0,0.2,0v1.6l-1,0c-1,0-1.7-0.1-2.1-0.5c-0.2-0.2-0.4-0.6-0.4-1.2v-5.1H113.1z"/>
			<path class="st1" d="M121.2,21.1h-2.2v-2h2.2V21.1z M119.1,22.1h2.2v8.3h-2.2V22.1z"/>
			<path class="st1" d="M130.1,29.4c-0.7,0.9-1.7,1.3-3.1,1.3s-2.4-0.4-3.1-1.3c-0.7-0.9-1-1.9-1-3.1c0-1.2,0.3-2.2,1-3.1
				c0.7-0.9,1.7-1.3,3.1-1.3s2.4,0.4,3.1,1.3c0.7,0.9,1,1.9,1,3.1C131.1,27.5,130.8,28.5,130.1,29.4z M128.4,28.2
				c0.3-0.5,0.5-1.1,0.5-1.9c0-0.8-0.2-1.5-0.5-1.9c-0.3-0.4-0.8-0.7-1.4-0.7c-0.6,0-1.1,0.2-1.4,0.7c-0.3,0.4-0.5,1.1-0.5,1.9
				c0,0.8,0.2,1.5,0.5,1.9c0.3,0.5,0.8,0.7,1.4,0.7C127.6,28.8,128.1,28.6,128.4,28.2z"/>
			<path class="st1" d="M139.3,22.5c0.5,0.5,0.8,1.2,0.8,2.2v5.6h-2.2v-5.1c0-0.4-0.1-0.8-0.2-1c-0.2-0.4-0.6-0.6-1.2-0.6
				c-0.7,0-1.2,0.3-1.5,0.9c-0.1,0.3-0.2,0.8-0.2,1.3v4.5h-2.1v-8.3h2.1v1.2c0.3-0.4,0.5-0.7,0.8-0.9c0.4-0.3,1-0.5,1.7-0.5
				C138,21.9,138.7,22.1,139.3,22.5z"/>
			<path class="st1" d="M145.3,25.3c0.4-0.1,0.7-0.1,0.9-0.2c0.3-0.1,0.5-0.3,0.5-0.6c0-0.3-0.1-0.6-0.4-0.7c-0.2-0.1-0.6-0.2-1-0.2
				c-0.5,0-0.9,0.1-1.1,0.4c-0.2,0.2-0.3,0.4-0.3,0.8h-2.1c0-0.7,0.2-1.3,0.6-1.8c0.6-0.7,1.5-1.1,2.9-1.1c0.9,0,1.7,0.2,2.4,0.5
				c0.7,0.4,1,1,1,2v3.8c0,0.3,0,0.6,0,1c0,0.3,0.1,0.5,0.1,0.6c0.1,0.1,0.2,0.2,0.3,0.3v0.3h-2.3c-0.1-0.2-0.1-0.3-0.1-0.5
				c0-0.1,0-0.3-0.1-0.5c-0.3,0.3-0.6,0.6-1,0.8c-0.5,0.3-1,0.4-1.6,0.4c-0.7,0-1.4-0.2-1.8-0.6s-0.7-1-0.7-1.8c0-1,0.4-1.8,1.2-2.2
				c0.4-0.2,1.1-0.4,1.9-0.5L145.3,25.3z M146.6,26.3c-0.1,0.1-0.3,0.2-0.4,0.2c-0.1,0.1-0.3,0.1-0.6,0.1l-0.5,0.1
				c-0.5,0.1-0.8,0.2-1,0.3c-0.3,0.2-0.5,0.5-0.5,0.9c0,0.4,0.1,0.6,0.3,0.8c0.2,0.2,0.5,0.2,0.7,0.2c0.5,0,0.9-0.1,1.3-0.4
				s0.6-0.8,0.6-1.5V26.3z"/>
			<path class="st1" d="M152.8,30.4h-2.1V19.1h2.1V30.4z"/>
		</g>
		<g>
			<path class="st1" d="M82.3,38.5V37c0.7,0,1.1-0.1,1.4-0.1c0.4-0.1,0.8-0.3,1-0.6c0.2-0.2,0.3-0.5,0.4-0.8
				c0.1-0.2,0.1-0.3,0.1-0.4H87v11.1h-2.2v-7.6H82.3z"/>
			<path class="st1" d="M92.2,42.7c0,0.4,0.1,0.8,0.2,1.1c0.3,0.5,0.7,0.8,1.4,0.8c0.4,0,0.8-0.1,1.1-0.4c0.3-0.3,0.5-0.7,0.5-1.3
				c0-0.7-0.3-1.2-0.9-1.5c-0.3-0.1-0.8-0.2-1.6-0.2v-1.6c0.7,0,1.2-0.1,1.4-0.2c0.5-0.2,0.7-0.6,0.7-1.3c0-0.4-0.1-0.8-0.4-1
				c-0.2-0.3-0.6-0.4-1-0.4c-0.5,0-0.9,0.2-1.1,0.5c-0.2,0.3-0.4,0.8-0.3,1.3h-2c0-0.5,0.1-1.1,0.3-1.6c0.2-0.4,0.4-0.8,0.8-1.2
				c0.3-0.3,0.6-0.5,1-0.6c0.4-0.1,0.9-0.2,1.4-0.2c1,0,1.9,0.3,2.5,0.8c0.6,0.5,1,1.3,1,2.2c0,0.7-0.2,1.2-0.6,1.6
				c-0.2,0.3-0.5,0.5-0.7,0.6c0.2,0,0.5,0.2,0.8,0.5c0.5,0.5,0.8,1.2,0.8,2.1c0,0.9-0.3,1.8-1,2.5c-0.6,0.7-1.6,1.1-2.8,1.1
				c-1.5,0-2.6-0.5-3.2-1.5c-0.3-0.5-0.5-1.3-0.5-2.1H92.2z"/>
		</g>
		<g>
			<path class="st1" d="M112.8,45.1c-0.8,0.9-2.1,1.3-3.7,1.3s-2.8-0.4-3.7-1.3c-1.1-1.1-1.7-2.6-1.7-4.6c0-2.1,0.6-3.6,1.7-4.6
				c0.8-0.9,2.1-1.3,3.7-1.3s2.8,0.4,3.7,1.3c1.1,1,1.7,2.6,1.7,4.6C114.5,42.5,113.9,44,112.8,45.1z M111.3,43.4
				c0.5-0.7,0.8-1.7,0.8-2.9c0-1.3-0.3-2.2-0.8-2.9c-0.5-0.7-1.3-1-2.2-1s-1.7,0.3-2.2,1c-0.6,0.7-0.8,1.7-0.8,2.9
				c0,1.3,0.3,2.2,0.8,2.9c0.6,0.7,1.3,1,2.2,1S110.8,44.1,111.3,43.4z"/>
			<path class="st1" d="M121.1,40.7c0-0.3-0.1-0.6-0.3-0.8c-0.2-0.3-0.6-0.5-1.1-0.5c-0.7,0-1.2,0.4-1.5,1.1
				c-0.1,0.4-0.2,0.9-0.2,1.5c0,0.6,0.1,1.1,0.2,1.5c0.3,0.7,0.7,1,1.5,1c0.5,0,0.9-0.1,1.1-0.4c0.2-0.3,0.3-0.6,0.4-1.1h2.2
				c-0.1,0.7-0.3,1.3-0.7,1.9c-0.7,1-1.7,1.4-3,1.4c-1.3,0-2.3-0.4-2.9-1.2c-0.6-0.8-0.9-1.8-0.9-3.1c0-1.4,0.3-2.5,1-3.3
				c0.7-0.8,1.7-1.2,2.9-1.2c1,0,1.9,0.2,2.6,0.7c0.7,0.5,1.1,1.3,1.2,2.5H121.1z"/>
			<path class="st1" d="M123.9,39.4v-1.6h1.2v-2.3h2.1v2.3h1.3v1.6h-1.3v4.4c0,0.3,0,0.6,0.1,0.6c0.1,0.1,0.4,0.1,0.8,0.1
				c0.1,0,0.1,0,0.2,0c0.1,0,0.1,0,0.2,0v1.6l-1,0c-1,0-1.7-0.1-2.1-0.5c-0.2-0.2-0.4-0.6-0.4-1.2v-5.1H123.9z"/>
			<path class="st1" d="M136.9,45.1c-0.7,0.9-1.8,1.3-3.2,1.3c-1.4,0-2.5-0.4-3.2-1.3c-0.7-0.9-1.1-1.9-1.1-3.1
				c0-1.2,0.4-2.2,1.1-3.1c0.7-0.9,1.8-1.3,3.2-1.3c1.4,0,2.5,0.4,3.2,1.3c0.7,0.9,1.1,1.9,1.1,3.1
				C137.9,43.2,137.6,44.2,136.9,45.1z M135.2,43.9c0.3-0.5,0.5-1.1,0.5-1.9c0-0.8-0.2-1.5-0.5-1.9c-0.3-0.4-0.8-0.7-1.5-0.7
				c-0.6,0-1.1,0.2-1.5,0.7c-0.3,0.4-0.5,1.1-0.5,1.9c0,0.8,0.2,1.5,0.5,1.9c0.3,0.5,0.8,0.7,1.5,0.7
				C134.3,44.5,134.8,44.3,135.2,43.9z"/>
			<path class="st1" d="M146.6,38.8c0.6,0.8,0.9,1.8,0.9,3.1c0,1.3-0.3,2.4-0.9,3.2s-1.5,1.3-2.6,1.3c-0.7,0-1.2-0.1-1.7-0.4
				c-0.3-0.2-0.5-0.4-0.8-0.9v1h-2.1V34.8h2.2v4c0.3-0.4,0.6-0.7,0.9-0.9c0.4-0.3,0.9-0.4,1.5-0.4C145.1,37.6,146,38,146.6,38.8z
				 M144.8,43.8c0.3-0.5,0.5-1,0.5-1.8c0-0.6-0.1-1.1-0.2-1.5c-0.3-0.7-0.8-1.1-1.6-1.1c-0.8,0-1.3,0.4-1.6,1.1
				c-0.2,0.4-0.2,0.9-0.2,1.5c0,0.7,0.2,1.3,0.5,1.8c0.3,0.5,0.8,0.7,1.5,0.7C144,44.5,144.4,44.3,144.8,43.8z"/>
			<path class="st1" d="M154.4,37.9c0.6,0.3,1.1,0.7,1.4,1.2c0.3,0.5,0.6,1.1,0.7,1.7c0.1,0.4,0.1,0.9,0.1,1.7h-6
				c0,0.8,0.3,1.4,0.9,1.8c0.3,0.2,0.7,0.3,1.2,0.3c0.5,0,0.9-0.1,1.2-0.4c0.2-0.1,0.3-0.3,0.4-0.6h2.2c-0.1,0.5-0.3,1-0.8,1.5
				c-0.7,0.8-1.8,1.2-3.1,1.2c-1.1,0-2.1-0.3-2.9-1c-0.8-0.7-1.3-1.8-1.3-3.3c0-1.4,0.4-2.5,1.1-3.3c0.8-0.8,1.8-1.2,3-1.2
				C153.2,37.5,153.8,37.7,154.4,37.9z M151.2,39.8c-0.3,0.3-0.5,0.7-0.6,1.3h3.7c0-0.6-0.2-1-0.6-1.3c-0.3-0.3-0.8-0.4-1.3-0.4
				C151.9,39.3,151.5,39.5,151.2,39.8z"/>
			<path class="st1" d="M162.3,37.6c0,0,0.1,0,0.2,0v2.2c-0.1,0-0.3,0-0.4,0c-0.1,0-0.2,0-0.3,0c-0.9,0-1.5,0.3-1.8,0.9
				c-0.2,0.3-0.3,0.8-0.3,1.5v4h-2.2v-8.3h2.1v1.5c0.3-0.6,0.6-0.9,0.9-1.1c0.4-0.3,0.9-0.5,1.6-0.5
				C162.2,37.6,162.3,37.6,162.3,37.6z"/>
		</g>
		<g>
			<path class="st1" d="M168.2,43.9c0.3-0.7,1-1.5,2.2-2.3c1-0.7,1.6-1.2,1.9-1.5c0.5-0.5,0.7-1,0.7-1.6c0-0.5-0.1-0.9-0.4-1.2
				c-0.3-0.3-0.6-0.5-1.1-0.5c-0.7,0-1.1,0.2-1.3,0.7c-0.1,0.3-0.2,0.7-0.2,1.4h-2.1c0-0.9,0.2-1.7,0.5-2.3c0.6-1.1,1.6-1.7,3.1-1.7
				c1.2,0,2.1,0.3,2.8,1c0.7,0.6,1,1.5,1,2.6c0,0.8-0.2,1.5-0.7,2.2c-0.3,0.4-0.8,0.9-1.6,1.4l-0.9,0.6c-0.5,0.4-0.9,0.7-1.1,0.8
				c-0.2,0.2-0.4,0.4-0.5,0.6h4.8v1.9h-7.6C167.7,45.3,167.9,44.6,168.2,43.9z"/>
			<path class="st1" d="M183.1,36.4c0.6,1,0.8,2.4,0.8,4.2c0,1.8-0.3,3.2-0.8,4.2c-0.6,1-1.6,1.5-3,1.5c-1.4,0-2.4-0.5-3-1.5
				c-0.6-1-0.8-2.4-0.8-4.2c0-1.8,0.3-3.2,0.8-4.2c0.6-1,1.6-1.5,3-1.5C181.6,34.9,182.6,35.4,183.1,36.4z M178.9,43.6
				c0.2,0.7,0.6,1,1.3,1c0.6,0,1.1-0.3,1.3-1c0.2-0.7,0.3-1.6,0.3-2.9c0-1.3-0.1-2.3-0.3-3c-0.2-0.6-0.6-1-1.3-1
				c-0.6,0-1.1,0.3-1.3,1c-0.2,0.6-0.3,1.6-0.3,3C178.6,41.9,178.7,42.9,178.9,43.6z"/>
			<path class="st1" d="M185.6,43.9c0.3-0.7,1-1.5,2.2-2.3c1-0.7,1.6-1.2,1.9-1.5c0.5-0.5,0.7-1,0.7-1.6c0-0.5-0.1-0.9-0.4-1.2
				c-0.3-0.3-0.6-0.5-1.1-0.5c-0.7,0-1.1,0.2-1.3,0.7c-0.1,0.3-0.2,0.7-0.2,1.4h-2.1c0-0.9,0.2-1.7,0.5-2.3c0.6-1.1,1.6-1.7,3.1-1.7
				c1.2,0,2.1,0.3,2.8,1c0.7,0.6,1,1.5,1,2.6c0,0.8-0.2,1.5-0.7,2.2c-0.3,0.4-0.8,0.9-1.6,1.4l-0.9,0.6c-0.5,0.4-0.9,0.7-1.1,0.8
				c-0.2,0.2-0.4,0.4-0.5,0.6h4.8v1.9H185C185.1,45.3,185.2,44.6,185.6,43.9z"/>
			<path class="st1" d="M195.8,42.7c0,0.4,0.1,0.8,0.2,1.1c0.3,0.5,0.7,0.8,1.4,0.8c0.4,0,0.8-0.1,1.1-0.4c0.3-0.3,0.5-0.7,0.5-1.3
				c0-0.7-0.3-1.2-0.9-1.5c-0.3-0.1-0.9-0.2-1.6-0.2v-1.6c0.7,0,1.2-0.1,1.5-0.2c0.5-0.2,0.7-0.6,0.7-1.3c0-0.4-0.1-0.8-0.4-1
				c-0.2-0.3-0.6-0.4-1-0.4c-0.5,0-0.9,0.2-1.1,0.5c-0.2,0.3-0.4,0.8-0.3,1.3h-2c0-0.5,0.1-1.1,0.3-1.6c0.2-0.4,0.5-0.8,0.8-1.2
				c0.3-0.3,0.6-0.5,1-0.6c0.4-0.1,0.9-0.2,1.4-0.2c1.1,0,1.9,0.3,2.6,0.8c0.6,0.5,1,1.3,1,2.2c0,0.7-0.2,1.2-0.6,1.6
				c-0.2,0.3-0.5,0.5-0.8,0.6c0.2,0,0.5,0.2,0.9,0.5c0.6,0.5,0.8,1.2,0.8,2.1c0,0.9-0.3,1.8-1,2.5c-0.6,0.7-1.6,1.1-2.9,1.1
				c-1.6,0-2.6-0.5-3.3-1.5c-0.3-0.5-0.5-1.3-0.5-2.1H195.8z"/>
		</g>
		<g>
			<path class="st1" d="M159.4,19.2h7.8v2h-5.5v2.6h4.9v2h-4.9v4.7h-2.3V19.2z"/>
			<path class="st1" d="M170.7,21.1h-2.2v-2h2.2V21.1z M168.5,22.1h2.2v8.3h-2.2V22.1z"/>
			<path class="st1" d="M174.9,30.4h-2.1V19.1h2.1V30.4z"/>
			<path class="st1" d="M187.1,22.1c0.3,0.1,0.7,0.4,0.9,0.7c0.2,0.3,0.4,0.6,0.5,1.1c0,0.3,0.1,0.7,0.1,1.2l0,5.2h-2.2v-5.3
				c0-0.3,0-0.6-0.1-0.8c-0.2-0.4-0.5-0.6-1-0.6c-0.6,0-1,0.2-1.2,0.7c-0.1,0.3-0.2,0.6-0.2,1v5h-2.1v-5c0-0.5-0.1-0.9-0.1-1.1
				c-0.2-0.4-0.5-0.6-1.1-0.6c-0.6,0-1,0.2-1.2,0.6c-0.1,0.2-0.2,0.6-0.2,1v5h-2.2v-8.3h2.1v1.2c0.3-0.4,0.5-0.7,0.7-0.9
				c0.4-0.3,0.9-0.5,1.6-0.5c0.6,0,1.1,0.1,1.5,0.4c0.3,0.3,0.5,0.6,0.7,1c0.3-0.5,0.6-0.8,1-1.1c0.4-0.2,0.9-0.3,1.5-0.3
				C186.4,21.9,186.8,22,187.1,22.1z"/>
		</g>
		<g>
			<path class="st1" d="M195.1,19.2h7.8v2h-5.5v2.6h4.9v2h-4.9v4.7h-2.3V19.2z"/>
			<path class="st1" d="M209.6,22.2c0.6,0.3,1,0.7,1.4,1.2c0.3,0.5,0.5,1.1,0.6,1.7c0.1,0.4,0.1,0.9,0.1,1.7h-5.9
				c0,0.8,0.3,1.4,0.8,1.8c0.3,0.2,0.7,0.3,1.2,0.3c0.5,0,0.9-0.1,1.2-0.4c0.2-0.1,0.3-0.3,0.4-0.6h2.2c-0.1,0.5-0.3,1-0.8,1.5
				c-0.7,0.8-1.7,1.2-3.1,1.2c-1.1,0-2-0.3-2.9-1c-0.8-0.7-1.2-1.8-1.2-3.3c0-1.4,0.4-2.5,1.1-3.3c0.7-0.8,1.7-1.2,2.9-1.2
				C208.4,21.8,209,22,209.6,22.2z M206.4,24.1c-0.3,0.3-0.5,0.7-0.6,1.3h3.7c0-0.6-0.2-1-0.6-1.3c-0.3-0.3-0.8-0.4-1.3-0.4
				C207.1,23.6,206.7,23.8,206.4,24.1z"/>
			<path class="st1" d="M214.4,27.7c0,0.4,0.1,0.7,0.3,0.8c0.3,0.3,0.8,0.4,1.5,0.4c0.4,0,0.8-0.1,1-0.2c0.2-0.1,0.4-0.3,0.4-0.6
				c0-0.2-0.1-0.4-0.3-0.6c-0.2-0.1-0.9-0.3-2.2-0.7c-0.9-0.2-1.6-0.5-1.9-0.9c-0.4-0.3-0.6-0.8-0.6-1.5c0-0.8,0.3-1.4,0.9-2
				c0.6-0.6,1.4-0.8,2.5-0.8c1,0,1.8,0.2,2.5,0.6c0.6,0.4,1,1.1,1.1,2.1h-2.1c0-0.3-0.1-0.5-0.2-0.7c-0.2-0.3-0.6-0.4-1.2-0.4
				c-0.5,0-0.8,0.1-1,0.2c-0.2,0.1-0.3,0.3-0.3,0.5c0,0.2,0.1,0.4,0.3,0.5c0.2,0.1,0.9,0.3,2.2,0.6c0.8,0.2,1.5,0.5,1.9,0.9
				c0.4,0.4,0.6,0.9,0.6,1.6c0,0.8-0.3,1.5-0.9,2c-0.6,0.5-1.5,0.8-2.8,0.8c-1.3,0-2.2-0.3-2.8-0.8s-0.9-1.3-0.9-2.1H214.4z"/>
			<path class="st1" d="M220.4,23.7v-1.6h1.1v-2.3h2.1v2.3h1.3v1.6h-1.3v4.4c0,0.3,0,0.6,0.1,0.6c0.1,0.1,0.3,0.1,0.8,0.1
				c0.1,0,0.1,0,0.2,0c0.1,0,0.1,0,0.2,0v1.6l-1,0c-1,0-1.7-0.1-2.1-0.5c-0.2-0.2-0.4-0.6-0.4-1.2v-5.1H220.4z"/>
			<path class="st1" d="M228.5,21.1h-2.2v-2h2.2V21.1z M226.4,22.1h2.2v8.3h-2.2V22.1z"/>
			<path class="st1" d="M235.6,22.1h2.3l-2.9,8.3h-2.2l-2.9-8.3h2.4l1.7,6.1L235.6,22.1z"/>
			<path class="st1" d="M242.3,25.3c0.4-0.1,0.7-0.1,0.8-0.2c0.3-0.1,0.5-0.3,0.5-0.6c0-0.3-0.1-0.6-0.4-0.7c-0.2-0.1-0.6-0.2-1-0.2
				c-0.5,0-0.9,0.1-1.1,0.4c-0.2,0.2-0.3,0.4-0.3,0.8h-2c0-0.7,0.2-1.3,0.6-1.8c0.6-0.7,1.5-1.1,2.9-1.1c0.9,0,1.7,0.2,2.4,0.5
				c0.7,0.4,1,1,1,2v3.8c0,0.3,0,0.6,0,1c0,0.3,0.1,0.5,0.1,0.6c0.1,0.1,0.2,0.2,0.3,0.3v0.3h-2.3c-0.1-0.2-0.1-0.3-0.1-0.5
				c0-0.1,0-0.3-0.1-0.5c-0.3,0.3-0.6,0.6-1,0.8c-0.5,0.3-1,0.4-1.6,0.4c-0.7,0-1.3-0.2-1.8-0.6c-0.5-0.4-0.7-1-0.7-1.8
				c0-1,0.4-1.8,1.2-2.2c0.4-0.2,1.1-0.4,1.9-0.5L242.3,25.3z M243.6,26.3c-0.1,0.1-0.3,0.2-0.4,0.2c-0.1,0.1-0.3,0.1-0.6,0.1
				l-0.5,0.1c-0.5,0.1-0.8,0.2-1,0.3c-0.3,0.2-0.5,0.5-0.5,0.9c0,0.4,0.1,0.6,0.3,0.8c0.2,0.2,0.5,0.2,0.7,0.2
				c0.5,0,0.9-0.1,1.3-0.4s0.6-0.8,0.6-1.5V26.3z"/>
			<path class="st1" d="M249.7,30.4h-2.1V19.1h2.1V30.4z"/>
		</g>
		<rect x="71.5" y="40" class="st1" width="8.7" height="1.7"/>
		<rect x="71.5" y="40" class="st1" width="8.7" height="1.7"/>
	</g>
</g>
</svg>
